<svg xmlns="http://www.w3.org/2000/svg" width="388" height="182.396" viewBox="0 0 388 182.396">
  <g id="Group_2316" data-name="Group 2316" transform="translate(0)">
    <path id="Path_601" data-name="Path 601" d="M255.469,438.665c.016.811.033,1.622.083,2.417.033.795.066,1.573.132,2.368a96.712,96.712,0,0,0,1.192,9.882c.166.943.331,1.87.513,2.78.033.215.083.431.116.629l.033.116c.116.562.232,1.109.348,1.672.215.976.447,1.953.679,2.9.05.183.1.348.132.53.629,2.483,1.308,4.816,2.019,7l.348,1.092c.315.96.629,1.87.944,2.764.232.646.463,1.258.678,1.854,1.208,3.211,2.384,5.877,3.327,7.9.877,1.87,1.622,3.443,2,4.238.166.347.265.546.265.546s183.522.033,284.826.049h65.285a.016.016,0,0,1,.017-.016c.232-.182.447-.348.662-.529h.017c.1-.083.2-.15.281-.232l4.817-5.214a23.1,23.1,0,0,0,2.582-4.784,26.288,26.288,0,0,0,1.887-10.015c0-.165,0-.348-.016-.529,0-.314-.017-.646-.017-.96q-.025-.422-.05-.844c-.083-1.026-.2-2.053-.364-3.078,0-.034-.017-.066-.017-.1a5.138,5.138,0,0,1-.083-.53c-.033-.215-.083-.43-.132-.646-.149-.761-.331-1.523-.53-2.3-.033-.183-.083-.365-.132-.546-.066-.215-.116-.43-.2-.646-.182-.678-.414-1.357-.646-2.052-.447-1.325-.977-2.648-1.573-3.989a2.545,2.545,0,0,0-.132-.315c-.546-1.208-1.142-2.4-1.788-3.609a62.4,62.4,0,0,0-3.294-5.413c-.265-.381-.53-.761-.795-1.125a68.362,68.362,0,0,0-4.42-5.612,83.862,83.862,0,0,0-6.34-6.555c-.513-.48-1.026-.944-1.539-1.407-.116-.1-.232-.2-.348-.314-.3-.248-.6-.513-.894-.761-1.258-1.093-2.483-2.119-3.691-3.112-.612-.5-1.208-.977-1.8-1.457-1.175-.943-2.317-1.87-3.41-2.764a58.925,58.925,0,0,1-8.69-8.293,26.328,26.328,0,0,1-2.185-3.113,23.6,23.6,0,0,1-2.682-6.522c-.132-.612-.265-1.242-.364-1.887a29.906,29.906,0,0,1-.4-5.744,44.206,44.206,0,0,1,.4-5.3c.049-.4.116-.811.182-1.241a75.255,75.255,0,0,1,1.589-7.631q.3-1.166.645-2.384c.4-1.407.712-2.8.96-4.154a39.387,39.387,0,0,0,.646-7.632,34.644,34.644,0,0,0-.646-6.489v-.033a38.8,38.8,0,0,0-1.539-5.761c-7.929-22.545-34.91-35.87-42.078-38.85-10.213-4.254-22.313-6.638-34.877-7.515-1.026-.066-2.053-.133-3.079-.182-2.9-.149-5.827-.215-8.74-.215-1.192,0-2.367.017-3.542.033-1.97.05-3.923.116-5.893.232-1.821.1-3.625.215-5.429.364a178.822,178.822,0,0,0-21.569,3.112,118.077,118.077,0,0,0-16.8,4.784l-.017.017a94.56,94.56,0,0,0-28.206,16.205c-1.672,1.39-3.261,2.8-4.751,4.2-.2.182-.414.381-.612.579-.463.43-.91.861-1.357,1.308-.2.2-.414.4-.613.6-1.308,1.307-2.566,2.615-3.757,3.89l-1.771,1.92c-3.145,3.476-5.926,6.721-8.574,9.518-.331.365-.662.7-.993,1.043-4.552,4.635-8.773,7.78-13.938,8.128a45.89,45.89,0,0,1-11.289-1.159c-.431-.082-.844-.165-1.275-.264-6.538-1.308-14.153-3.162-22.611-3.939a70.4,70.4,0,0,0-36.632,5.843c-.43.2-.844.4-1.275.6-1.953.944-3.923,1.987-5.91,3.162-.414.232-.828.48-1.241.728q-3.029,1.862-6.141,4.138a.883.883,0,0,0-.149.116c-.894.645-1.788,1.34-2.682,2.052-1.043.828-2.1,1.688-3.162,2.6-2.549,2.2-5.148,4.618-7.747,7.3-1.887,1.936-3.642,3.89-5.231,5.876-1.109,1.358-2.152,2.732-3.112,4.106-.182.248-.348.5-.53.744a82.407,82.407,0,0,0-4.469,7.349c-.149.3-.314.613-.48.911a75.155,75.155,0,0,0-4.32,10.246c-.1.3-.2.579-.3.861-.5,1.539-.927,3.079-1.324,4.618-.53,2.1-.96,4.188-1.308,6.273A83.883,83.883,0,0,0,255.469,438.665Z" transform="translate(-253.809 -305)" fill="#edf4ff"/>
    <g id="Group_2304" data-name="Group 2304" transform="translate(121.442 52.523)">
      <g id="Group_2223" data-name="Group 2223" transform="translate(184.03 0)">
        <path id="Path_602" data-name="Path 602" d="M589.418,685.462V798.469h23.24V726.034a29.91,29.91,0,0,1-.4-5.744,44.22,44.22,0,0,1,.4-5.3v-29.53Z" transform="translate(-589.418 -685.429)" fill="#c4d9ed"/>
        <path id="Path_603" data-name="Path 603" d="M551.552,685.462V798.469h23.24V737.554a26.327,26.327,0,0,1-2.185-3.113,23.6,23.6,0,0,1-2.682-6.522c-.132-.612-.265-1.242-.364-1.887a29.915,29.915,0,0,1-.4-5.744,44.206,44.206,0,0,1,.4-5.3c.049-.4.116-.811.182-1.241a75.234,75.234,0,0,1,1.589-7.631q.3-1.166.646-2.384c.4-1.407.712-2.8.96-4.154a39.387,39.387,0,0,0,.646-7.631,34.649,34.649,0,0,0-.646-6.489Z" transform="translate(-546.321 -685.429)" fill="#d5e7f7"/>
        <path id="Path_604" data-name="Path 604" d="M581.686,685.257a34.635,34.635,0,0,1,.645,6.489H560.3v-6.522h21.386Z" transform="translate(-555.069 -685.224)" fill="#c4d9ed"/>
        <path id="Path_605" data-name="Path 605" d="M564.973,787.681v6.538h19.781q.3-1.166.646-2.384c.4-1.407.712-2.8.96-4.154Z" transform="translate(-559.742 -773.528)" fill="#c4d9ed"/>
        <path id="Path_606" data-name="Path 606" d="M588.1,890.251v6.539h17.612a44.208,44.208,0,0,1,.4-5.3c.049-.4.116-.811.182-1.241Z" transform="translate(-582.87 -861.929)" fill="#c4d9ed"/>
        <path id="Path_607" data-name="Path 607" d="M567.37,992.827v6.522h21.055a23.6,23.6,0,0,1-2.682-6.522Z" transform="translate(-562.139 -950.336)" fill="#c4d9ed"/>
        <rect id="Rectangle_205" data-name="Rectangle 205" width="23.233" height="6.53" transform="translate(5.231 56.65)" fill="#c4d9ed"/>
        <rect id="Rectangle_206" data-name="Rectangle 206" width="23.233" height="6.53" transform="translate(5.231 70.813)" fill="#c4d9ed"/>
        <rect id="Rectangle_207" data-name="Rectangle 207" width="23.233" height="6.53" transform="translate(5.231 84.977)" fill="#c4d9ed"/>
        <rect id="Rectangle_208" data-name="Rectangle 208" width="23.233" height="6.53" transform="translate(5.231 99.14)" fill="#c4d9ed"/>
      </g>
      <g id="Group_2224" data-name="Group 2224" transform="translate(221.191 60.418)">
        <path id="Path_608" data-name="Path 608" d="M320.4,1122.6v52.622h23.24v-29.514c-.265-.381-.53-.761-.795-1.125a68.343,68.343,0,0,0-4.42-5.612,83.862,83.862,0,0,0-6.34-6.555c-.513-.48-1.026-.944-1.539-1.407-.116-.1-.232-.2-.348-.314-.3-.248-.6-.513-.894-.761-1.258-1.093-2.483-2.119-3.691-3.112-.612-.5-1.209-.977-1.8-1.457C322.633,1124.425,321.491,1123.5,320.4,1122.6Z" transform="translate(-320.398 -1122.604)" fill="#c4d9ed"/>
        <path id="Path_609" data-name="Path 609" d="M282.652,1153.164v48.4h23.24v-20.178a2.536,2.536,0,0,0-.132-.314c-.546-1.208-1.142-2.4-1.788-3.609a62.4,62.4,0,0,0-3.294-5.413c-.265-.381-.53-.761-.795-1.125a68.343,68.343,0,0,0-4.42-5.612,83.8,83.8,0,0,0-6.34-6.555c-.513-.48-1.026-.944-1.539-1.407-.116-.1-.232-.2-.348-.314-.3-.248-.6-.513-.894-.761C285.085,1155.183,283.86,1154.156,282.652,1153.164Z" transform="translate(-277.438 -1148.943)" fill="#d5e7f7"/>
        <path id="Path_610" data-name="Path 610" d="M404.041,1153.164v5.595h6.472c-.513-.48-1.026-.944-1.539-1.407-.116-.1-.232-.2-.348-.314-.3-.248-.6-.513-.894-.761C406.474,1155.183,405.249,1154.156,404.041,1153.164Z" transform="translate(-398.827 -1148.943)" fill="#c4d9ed"/>
        <path id="Path_611" data-name="Path 611" d="M326.151,1241.118v5.612h17.231a68.329,68.329,0,0,0-4.419-5.612Z" transform="translate(-320.937 -1224.747)" fill="#c4d9ed"/>
        <path id="Path_612" data-name="Path 612" d="M282.652,1329.072v5.612h23.24V1333a2.553,2.553,0,0,0-.132-.315c-.546-1.208-1.142-2.4-1.788-3.609Z" transform="translate(-277.438 -1300.551)" fill="#c4d9ed"/>
        <rect id="Rectangle_209" data-name="Rectangle 209" width="23.233" height="5.606" transform="translate(5.219 40.688)" fill="#c4d9ed"/>
      </g>
      <rect id="Rectangle_210" data-name="Rectangle 210" width="9.731" height="14.19" transform="translate(171.458 109.57)" fill="#dceaf9"/>
      <path id="Path_613" data-name="Path 613" d="M838.525,842.934V834.17h2.661V819.1H855.45v15.07h13.337V809.614H883.5v15.941h3.356V806.523h14.717v35.682H920.19v20.807h6.954v5.242h15.974v-9.026h9.171V834.7h11.329v45.277h11.329v39.4H827.159V842.934Z" transform="translate(-800.519 -789.768)" fill="#d5e7f7"/>
      <rect id="Rectangle_211" data-name="Rectangle 211" width="14.725" height="3.636" transform="translate(86.342 19.164)" fill="#c4d9ed"/>
      <rect id="Rectangle_212" data-name="Rectangle 212" width="14.725" height="3.636" transform="translate(86.342 25.994)" fill="#c4d9ed"/>
      <rect id="Rectangle_213" data-name="Rectangle 213" width="14.725" height="3.636" transform="translate(86.342 32.139)" fill="#c4d9ed"/>
      <rect id="Rectangle_214" data-name="Rectangle 214" width="14.725" height="3.636" transform="translate(68.273 32.139)" fill="#c4d9ed"/>
      <rect id="Rectangle_215" data-name="Rectangle 215" width="14.725" height="3.636" transform="translate(68.273 25.994)" fill="#c4d9ed"/>
      <rect id="Rectangle_216" data-name="Rectangle 216" width="14.725" height="3.636" transform="translate(68.273 19.859)" fill="#c4d9ed"/>
      <rect id="Rectangle_217" data-name="Rectangle 217" width="32.798" height="3.636" transform="translate(68.269 38.097)" fill="#c4d9ed"/>
      <rect id="Rectangle_218" data-name="Rectangle 218" width="32.798" height="3.636" transform="translate(68.269 44.055)" fill="#c4d9ed"/>
      <rect id="Rectangle_219" data-name="Rectangle 219" width="11.429" height="5.612" transform="translate(151.666 44.936)" fill="#c4d9ed"/>
      <rect id="Rectangle_220" data-name="Rectangle 220" width="11.429" height="5.612" transform="translate(151.666 53.282)" fill="#c4d9ed"/>
      <rect id="Rectangle_221" data-name="Rectangle 221" width="11.429" height="5.612" transform="translate(151.666 61.628)" fill="#c4d9ed"/>
      <rect id="Rectangle_222" data-name="Rectangle 222" width="11.429" height="5.612" transform="translate(151.666 70.376)" fill="#c4d9ed"/>
      <rect id="Rectangle_223" data-name="Rectangle 223" width="11.429" height="5.612" transform="translate(151.666 78.854)" fill="#c4d9ed"/>
      <rect id="Rectangle_224" data-name="Rectangle 224" width="11.429" height="5.612" transform="translate(151.666 87.331)" fill="#c4d9ed"/>
      <rect id="Rectangle_225" data-name="Rectangle 225" width="11.429" height="5.612" transform="translate(151.666 96.2)" fill="#c4d9ed"/>
      <rect id="Rectangle_226" data-name="Rectangle 226" width="32.798" height="2.308" transform="translate(68.269 49.878)" fill="#c4d9ed"/>
      <rect id="Rectangle_227" data-name="Rectangle 227" width="4.214" height="24.525" transform="translate(147.611 44.936)" fill="#c4d9ed"/>
      <rect id="Rectangle_228" data-name="Rectangle 228" width="8.477" height="9.026" transform="translate(134.123 69.461)" fill="#c4d9ed"/>
      <path id="Path_614" data-name="Path 614" d="M1598.58,828.989h-2.926v24.543h2.921Z" transform="translate(-1530.307 -809.13)" fill="#c4d9ed"/>
      <rect id="Rectangle_229" data-name="Rectangle 229" width="1.796" height="19.019" transform="translate(84.546 16.756)" fill="#c4d9ed"/>
      <g id="Group_2268" data-name="Group 2268" transform="translate(28.792 56.018)" opacity="0.8">
        <g id="Group_2231" data-name="Group 2231">
          <g id="Group_2227" data-name="Group 2227" transform="translate(44.968)">
            <g id="Group_2225" data-name="Group 2225" transform="translate(22.416)">
              <rect id="Rectangle_230" data-name="Rectangle 230" width="2.495" height="3.517" transform="translate(17.958)" fill="#c4d9ed"/>
              <rect id="Rectangle_231" data-name="Rectangle 231" width="2.495" height="3.517" transform="translate(13.293)" fill="#c4d9ed"/>
              <rect id="Rectangle_232" data-name="Rectangle 232" width="2.495" height="3.517" transform="translate(8.732)" fill="#c4d9ed"/>
              <rect id="Rectangle_233" data-name="Rectangle 233" width="2.495" height="3.517" transform="translate(4.408)" fill="#c4d9ed"/>
              <rect id="Rectangle_234" data-name="Rectangle 234" width="2.495" height="3.517" transform="translate(0)" fill="#c4d9ed"/>
            </g>
            <g id="Group_2226" data-name="Group 2226">
              <rect id="Rectangle_235" data-name="Rectangle 235" width="2.495" height="3.517" transform="translate(17.958)" fill="#c4d9ed"/>
              <rect id="Rectangle_236" data-name="Rectangle 236" width="2.495" height="3.517" transform="translate(13.293)" fill="#c4d9ed"/>
              <rect id="Rectangle_237" data-name="Rectangle 237" width="2.495" height="3.517" transform="translate(8.732)" fill="#c4d9ed"/>
              <rect id="Rectangle_238" data-name="Rectangle 238" width="2.495" height="3.517" transform="translate(4.408)" fill="#c4d9ed"/>
              <rect id="Rectangle_239" data-name="Rectangle 239" width="2.495" height="3.517" transform="translate(0)" fill="#c4d9ed"/>
            </g>
          </g>
          <g id="Group_2230" data-name="Group 2230" transform="translate(0)">
            <g id="Group_2228" data-name="Group 2228" transform="translate(22.417)">
              <rect id="Rectangle_240" data-name="Rectangle 240" width="2.495" height="3.517" transform="translate(17.958)" fill="#c4d9ed"/>
              <rect id="Rectangle_241" data-name="Rectangle 241" width="2.495" height="3.517" transform="translate(13.293)" fill="#c4d9ed"/>
              <rect id="Rectangle_242" data-name="Rectangle 242" width="2.495" height="3.517" transform="translate(8.732)" fill="#c4d9ed"/>
              <rect id="Rectangle_243" data-name="Rectangle 243" width="2.495" height="3.517" transform="translate(4.408)" fill="#c4d9ed"/>
              <rect id="Rectangle_244" data-name="Rectangle 244" width="2.495" height="3.517" transform="translate(0)" fill="#c4d9ed"/>
            </g>
            <g id="Group_2229" data-name="Group 2229">
              <rect id="Rectangle_245" data-name="Rectangle 245" width="2.495" height="3.517" transform="translate(17.958)" fill="#c4d9ed"/>
              <rect id="Rectangle_246" data-name="Rectangle 246" width="2.495" height="3.517" transform="translate(13.293)" fill="#c4d9ed"/>
              <rect id="Rectangle_247" data-name="Rectangle 247" width="2.495" height="3.517" transform="translate(8.732)" fill="#c4d9ed"/>
              <rect id="Rectangle_248" data-name="Rectangle 248" width="2.495" height="3.517" transform="translate(4.408)" fill="#c4d9ed"/>
              <rect id="Rectangle_249" data-name="Rectangle 249" width="2.495" height="3.517" transform="translate(0)" fill="#c4d9ed"/>
            </g>
          </g>
        </g>
        <g id="Group_2238" data-name="Group 2238" transform="translate(0 6.205)">
          <g id="Group_2234" data-name="Group 2234" transform="translate(44.968)">
            <g id="Group_2232" data-name="Group 2232" transform="translate(22.416)">
              <rect id="Rectangle_250" data-name="Rectangle 250" width="2.495" height="3.516" transform="translate(17.958)" fill="#c4d9ed"/>
              <rect id="Rectangle_251" data-name="Rectangle 251" width="2.495" height="3.516" transform="translate(13.293)" fill="#c4d9ed"/>
              <rect id="Rectangle_252" data-name="Rectangle 252" width="2.495" height="3.516" transform="translate(8.732)" fill="#c4d9ed"/>
              <rect id="Rectangle_253" data-name="Rectangle 253" width="2.495" height="3.516" transform="translate(4.408)" fill="#c4d9ed"/>
              <rect id="Rectangle_254" data-name="Rectangle 254" width="2.495" height="3.516" transform="translate(0)" fill="#c4d9ed"/>
            </g>
            <g id="Group_2233" data-name="Group 2233">
              <rect id="Rectangle_255" data-name="Rectangle 255" width="2.495" height="3.516" transform="translate(17.958)" fill="#c4d9ed"/>
              <rect id="Rectangle_256" data-name="Rectangle 256" width="2.495" height="3.516" transform="translate(13.293)" fill="#c4d9ed"/>
              <rect id="Rectangle_257" data-name="Rectangle 257" width="2.495" height="3.516" transform="translate(8.732)" fill="#c4d9ed"/>
              <rect id="Rectangle_258" data-name="Rectangle 258" width="2.495" height="3.516" transform="translate(4.408)" fill="#c4d9ed"/>
              <rect id="Rectangle_259" data-name="Rectangle 259" width="2.495" height="3.516" transform="translate(0)" fill="#c4d9ed"/>
            </g>
          </g>
          <g id="Group_2237" data-name="Group 2237" transform="translate(0)">
            <g id="Group_2235" data-name="Group 2235" transform="translate(22.417)">
              <rect id="Rectangle_260" data-name="Rectangle 260" width="2.495" height="3.516" transform="translate(17.958)" fill="#c4d9ed"/>
              <rect id="Rectangle_261" data-name="Rectangle 261" width="2.495" height="3.516" transform="translate(13.293)" fill="#c4d9ed"/>
              <rect id="Rectangle_262" data-name="Rectangle 262" width="2.495" height="3.516" transform="translate(8.732)" fill="#c4d9ed"/>
              <rect id="Rectangle_263" data-name="Rectangle 263" width="2.495" height="3.516" transform="translate(4.408)" fill="#c4d9ed"/>
              <rect id="Rectangle_264" data-name="Rectangle 264" width="2.495" height="3.516" transform="translate(0)" fill="#c4d9ed"/>
            </g>
            <g id="Group_2236" data-name="Group 2236">
              <rect id="Rectangle_265" data-name="Rectangle 265" width="2.495" height="3.516" transform="translate(17.958)" fill="#c4d9ed"/>
              <rect id="Rectangle_266" data-name="Rectangle 266" width="2.495" height="3.516" transform="translate(13.293)" fill="#c4d9ed"/>
              <rect id="Rectangle_267" data-name="Rectangle 267" width="2.495" height="3.516" transform="translate(8.732)" fill="#c4d9ed"/>
              <rect id="Rectangle_268" data-name="Rectangle 268" width="2.495" height="3.516" transform="translate(4.408)" fill="#c4d9ed"/>
              <rect id="Rectangle_269" data-name="Rectangle 269" width="2.495" height="3.516" transform="translate(0)" fill="#c4d9ed"/>
            </g>
          </g>
        </g>
        <g id="Group_2245" data-name="Group 2245" transform="translate(0 12.316)">
          <g id="Group_2241" data-name="Group 2241" transform="translate(44.968)">
            <g id="Group_2239" data-name="Group 2239" transform="translate(22.416)">
              <rect id="Rectangle_270" data-name="Rectangle 270" width="2.495" height="3.517" transform="translate(17.958)" fill="#c4d9ed"/>
              <rect id="Rectangle_271" data-name="Rectangle 271" width="2.495" height="3.517" transform="translate(13.293)" fill="#c4d9ed"/>
              <rect id="Rectangle_272" data-name="Rectangle 272" width="2.495" height="3.517" transform="translate(8.732)" fill="#c4d9ed"/>
              <rect id="Rectangle_273" data-name="Rectangle 273" width="2.495" height="3.517" transform="translate(4.408)" fill="#c4d9ed"/>
              <rect id="Rectangle_274" data-name="Rectangle 274" width="2.495" height="3.517" transform="translate(0)" fill="#c4d9ed"/>
            </g>
            <g id="Group_2240" data-name="Group 2240">
              <rect id="Rectangle_275" data-name="Rectangle 275" width="2.495" height="3.517" transform="translate(17.958)" fill="#c4d9ed"/>
              <rect id="Rectangle_276" data-name="Rectangle 276" width="2.495" height="3.517" transform="translate(13.293)" fill="#c4d9ed"/>
              <rect id="Rectangle_277" data-name="Rectangle 277" width="2.495" height="3.517" transform="translate(8.732)" fill="#c4d9ed"/>
              <rect id="Rectangle_278" data-name="Rectangle 278" width="2.495" height="3.517" transform="translate(4.408)" fill="#c4d9ed"/>
              <rect id="Rectangle_279" data-name="Rectangle 279" width="2.495" height="3.517" transform="translate(0)" fill="#c4d9ed"/>
            </g>
          </g>
          <g id="Group_2244" data-name="Group 2244" transform="translate(0)">
            <g id="Group_2242" data-name="Group 2242" transform="translate(22.417)">
              <rect id="Rectangle_280" data-name="Rectangle 280" width="2.495" height="3.517" transform="translate(17.958)" fill="#c4d9ed"/>
              <rect id="Rectangle_281" data-name="Rectangle 281" width="2.495" height="3.517" transform="translate(13.293)" fill="#c4d9ed"/>
              <rect id="Rectangle_282" data-name="Rectangle 282" width="2.495" height="3.517" transform="translate(8.732)" fill="#c4d9ed"/>
              <rect id="Rectangle_283" data-name="Rectangle 283" width="2.495" height="3.517" transform="translate(4.408)" fill="#c4d9ed"/>
              <rect id="Rectangle_284" data-name="Rectangle 284" width="2.495" height="3.517" transform="translate(0)" fill="#c4d9ed"/>
            </g>
            <g id="Group_2243" data-name="Group 2243">
              <rect id="Rectangle_285" data-name="Rectangle 285" width="2.495" height="3.517" transform="translate(17.958)" fill="#c4d9ed"/>
              <rect id="Rectangle_286" data-name="Rectangle 286" width="2.495" height="3.517" transform="translate(13.293)" fill="#c4d9ed"/>
              <rect id="Rectangle_287" data-name="Rectangle 287" width="2.495" height="3.517" transform="translate(8.732)" fill="#c4d9ed"/>
              <rect id="Rectangle_288" data-name="Rectangle 288" width="2.495" height="3.517" transform="translate(4.408)" fill="#c4d9ed"/>
              <rect id="Rectangle_289" data-name="Rectangle 289" width="2.495" height="3.517" transform="translate(0)" fill="#c4d9ed"/>
            </g>
          </g>
        </g>
        <g id="Group_2267" data-name="Group 2267" transform="translate(0 18.808)">
          <g id="Group_2252" data-name="Group 2252">
            <g id="Group_2248" data-name="Group 2248" transform="translate(44.968)">
              <g id="Group_2246" data-name="Group 2246" transform="translate(22.416)">
                <rect id="Rectangle_290" data-name="Rectangle 290" width="2.495" height="3.517" transform="translate(17.958)" fill="#c4d9ed"/>
                <rect id="Rectangle_291" data-name="Rectangle 291" width="2.495" height="3.517" transform="translate(13.293)" fill="#c4d9ed"/>
                <rect id="Rectangle_292" data-name="Rectangle 292" width="2.495" height="3.517" transform="translate(8.732)" fill="#c4d9ed"/>
                <rect id="Rectangle_293" data-name="Rectangle 293" width="2.495" height="3.517" transform="translate(4.408)" fill="#c4d9ed"/>
                <rect id="Rectangle_294" data-name="Rectangle 294" width="2.495" height="3.517" transform="translate(0)" fill="#c4d9ed"/>
              </g>
              <g id="Group_2247" data-name="Group 2247">
                <rect id="Rectangle_295" data-name="Rectangle 295" width="2.495" height="3.517" transform="translate(17.958)" fill="#c4d9ed"/>
                <rect id="Rectangle_296" data-name="Rectangle 296" width="2.495" height="3.517" transform="translate(13.293)" fill="#c4d9ed"/>
                <rect id="Rectangle_297" data-name="Rectangle 297" width="2.495" height="3.517" transform="translate(8.732)" fill="#c4d9ed"/>
                <rect id="Rectangle_298" data-name="Rectangle 298" width="2.495" height="3.517" transform="translate(4.408)" fill="#c4d9ed"/>
                <rect id="Rectangle_299" data-name="Rectangle 299" width="2.495" height="3.517" transform="translate(0)" fill="#c4d9ed"/>
              </g>
            </g>
            <g id="Group_2251" data-name="Group 2251" transform="translate(0)">
              <g id="Group_2249" data-name="Group 2249" transform="translate(22.417)">
                <rect id="Rectangle_300" data-name="Rectangle 300" width="2.495" height="3.517" transform="translate(17.958)" fill="#c4d9ed"/>
                <rect id="Rectangle_301" data-name="Rectangle 301" width="2.495" height="3.517" transform="translate(13.293)" fill="#c4d9ed"/>
                <rect id="Rectangle_302" data-name="Rectangle 302" width="2.495" height="3.517" transform="translate(8.732)" fill="#c4d9ed"/>
                <rect id="Rectangle_303" data-name="Rectangle 303" width="2.495" height="3.517" transform="translate(4.408)" fill="#c4d9ed"/>
                <rect id="Rectangle_304" data-name="Rectangle 304" width="2.495" height="3.517" transform="translate(0)" fill="#c4d9ed"/>
              </g>
              <g id="Group_2250" data-name="Group 2250">
                <rect id="Rectangle_305" data-name="Rectangle 305" width="2.495" height="3.517" transform="translate(17.958)" fill="#c4d9ed"/>
                <rect id="Rectangle_306" data-name="Rectangle 306" width="2.495" height="3.517" transform="translate(13.293)" fill="#c4d9ed"/>
                <rect id="Rectangle_307" data-name="Rectangle 307" width="2.495" height="3.517" transform="translate(8.732)" fill="#c4d9ed"/>
                <rect id="Rectangle_308" data-name="Rectangle 308" width="2.495" height="3.517" transform="translate(4.408)" fill="#c4d9ed"/>
                <rect id="Rectangle_309" data-name="Rectangle 309" width="2.495" height="3.517" transform="translate(0)" fill="#c4d9ed"/>
              </g>
            </g>
          </g>
          <g id="Group_2259" data-name="Group 2259" transform="translate(0 6.205)">
            <g id="Group_2255" data-name="Group 2255" transform="translate(44.968)">
              <g id="Group_2253" data-name="Group 2253" transform="translate(22.416)">
                <rect id="Rectangle_310" data-name="Rectangle 310" width="2.495" height="3.517" transform="translate(17.958)" fill="#c4d9ed"/>
                <rect id="Rectangle_311" data-name="Rectangle 311" width="2.495" height="3.517" transform="translate(13.293)" fill="#c4d9ed"/>
                <rect id="Rectangle_312" data-name="Rectangle 312" width="2.495" height="3.517" transform="translate(8.732)" fill="#c4d9ed"/>
                <rect id="Rectangle_313" data-name="Rectangle 313" width="2.495" height="3.517" transform="translate(4.408)" fill="#c4d9ed"/>
                <rect id="Rectangle_314" data-name="Rectangle 314" width="2.495" height="3.517" transform="translate(0)" fill="#c4d9ed"/>
              </g>
              <g id="Group_2254" data-name="Group 2254">
                <rect id="Rectangle_315" data-name="Rectangle 315" width="2.495" height="3.517" transform="translate(17.958)" fill="#c4d9ed"/>
                <rect id="Rectangle_316" data-name="Rectangle 316" width="2.495" height="3.517" transform="translate(13.293)" fill="#c4d9ed"/>
                <rect id="Rectangle_317" data-name="Rectangle 317" width="2.495" height="3.517" transform="translate(8.732)" fill="#c4d9ed"/>
                <rect id="Rectangle_318" data-name="Rectangle 318" width="2.495" height="3.517" transform="translate(4.408)" fill="#c4d9ed"/>
                <rect id="Rectangle_319" data-name="Rectangle 319" width="2.495" height="3.517" transform="translate(0)" fill="#c4d9ed"/>
              </g>
            </g>
            <g id="Group_2258" data-name="Group 2258" transform="translate(0)">
              <g id="Group_2256" data-name="Group 2256" transform="translate(22.417)">
                <rect id="Rectangle_320" data-name="Rectangle 320" width="2.495" height="3.517" transform="translate(17.958)" fill="#c4d9ed"/>
                <rect id="Rectangle_321" data-name="Rectangle 321" width="2.495" height="3.517" transform="translate(13.293)" fill="#c4d9ed"/>
                <rect id="Rectangle_322" data-name="Rectangle 322" width="2.495" height="3.517" transform="translate(8.732)" fill="#c4d9ed"/>
                <rect id="Rectangle_323" data-name="Rectangle 323" width="2.495" height="3.517" transform="translate(4.408)" fill="#c4d9ed"/>
                <rect id="Rectangle_324" data-name="Rectangle 324" width="2.495" height="3.517" transform="translate(0)" fill="#c4d9ed"/>
              </g>
              <g id="Group_2257" data-name="Group 2257">
                <rect id="Rectangle_325" data-name="Rectangle 325" width="2.495" height="3.517" transform="translate(17.958)" fill="#c4d9ed"/>
                <rect id="Rectangle_326" data-name="Rectangle 326" width="2.495" height="3.517" transform="translate(13.293)" fill="#c4d9ed"/>
                <rect id="Rectangle_327" data-name="Rectangle 327" width="2.495" height="3.517" transform="translate(8.732)" fill="#c4d9ed"/>
                <rect id="Rectangle_328" data-name="Rectangle 328" width="2.495" height="3.517" transform="translate(4.408)" fill="#c4d9ed"/>
                <rect id="Rectangle_329" data-name="Rectangle 329" width="2.495" height="3.517" transform="translate(0)" fill="#c4d9ed"/>
              </g>
            </g>
          </g>
          <g id="Group_2266" data-name="Group 2266" transform="translate(0 12.316)">
            <g id="Group_2262" data-name="Group 2262" transform="translate(44.968)">
              <g id="Group_2260" data-name="Group 2260" transform="translate(22.416)">
                <rect id="Rectangle_330" data-name="Rectangle 330" width="2.495" height="3.517" transform="translate(17.958)" fill="#c4d9ed"/>
                <rect id="Rectangle_331" data-name="Rectangle 331" width="2.495" height="3.517" transform="translate(13.293)" fill="#c4d9ed"/>
                <rect id="Rectangle_332" data-name="Rectangle 332" width="2.495" height="3.517" transform="translate(8.732)" fill="#c4d9ed"/>
                <rect id="Rectangle_333" data-name="Rectangle 333" width="2.495" height="3.517" transform="translate(4.408)" fill="#c4d9ed"/>
                <rect id="Rectangle_334" data-name="Rectangle 334" width="2.495" height="3.517" transform="translate(0)" fill="#c4d9ed"/>
              </g>
              <g id="Group_2261" data-name="Group 2261">
                <rect id="Rectangle_335" data-name="Rectangle 335" width="2.495" height="3.517" transform="translate(17.958)" fill="#c4d9ed"/>
                <rect id="Rectangle_336" data-name="Rectangle 336" width="2.495" height="3.517" transform="translate(13.293)" fill="#c4d9ed"/>
                <rect id="Rectangle_337" data-name="Rectangle 337" width="2.495" height="3.517" transform="translate(8.732)" fill="#c4d9ed"/>
                <rect id="Rectangle_338" data-name="Rectangle 338" width="2.495" height="3.517" transform="translate(4.408)" fill="#c4d9ed"/>
                <rect id="Rectangle_339" data-name="Rectangle 339" width="2.495" height="3.517" transform="translate(0)" fill="#c4d9ed"/>
              </g>
            </g>
            <g id="Group_2265" data-name="Group 2265" transform="translate(0)">
              <g id="Group_2263" data-name="Group 2263" transform="translate(22.417)">
                <rect id="Rectangle_340" data-name="Rectangle 340" width="2.495" height="3.517" transform="translate(17.958)" fill="#c4d9ed"/>
                <rect id="Rectangle_341" data-name="Rectangle 341" width="2.495" height="3.517" transform="translate(13.293)" fill="#c4d9ed"/>
                <rect id="Rectangle_342" data-name="Rectangle 342" width="2.495" height="3.517" transform="translate(8.732)" fill="#c4d9ed"/>
                <rect id="Rectangle_343" data-name="Rectangle 343" width="2.495" height="3.517" transform="translate(4.408)" fill="#c4d9ed"/>
                <rect id="Rectangle_344" data-name="Rectangle 344" width="2.495" height="3.517" transform="translate(0)" fill="#c4d9ed"/>
              </g>
              <g id="Group_2264" data-name="Group 2264">
                <rect id="Rectangle_345" data-name="Rectangle 345" width="2.495" height="3.517" transform="translate(17.958)" fill="#c4d9ed"/>
                <rect id="Rectangle_346" data-name="Rectangle 346" width="2.495" height="3.517" transform="translate(13.293)" fill="#c4d9ed"/>
                <rect id="Rectangle_347" data-name="Rectangle 347" width="2.495" height="3.517" transform="translate(8.732)" fill="#c4d9ed"/>
                <rect id="Rectangle_348" data-name="Rectangle 348" width="2.495" height="3.517" transform="translate(4.408)" fill="#c4d9ed"/>
                <rect id="Rectangle_349" data-name="Rectangle 349" width="2.495" height="3.517" transform="translate(0)" fill="#c4d9ed"/>
              </g>
            </g>
          </g>
        </g>
      </g>
      <rect id="Rectangle_350" data-name="Rectangle 350" width="57.826" height="31.196" transform="translate(76.297 98.159)" fill="#c4d9ed"/>
      <rect id="Rectangle_351" data-name="Rectangle 351" width="57.826" height="15.598" transform="translate(120.145 113.757)" fill="#c4d9ed"/>
      <rect id="Rectangle_352" data-name="Rectangle 352" width="57.826" height="26.335" transform="translate(13.836 103.02)" fill="#c4d9ed"/>
      <rect id="Rectangle_353" data-name="Rectangle 353" width="10.774" height="5.778" transform="translate(119.486 101.812)" fill="#d5e7f7"/>
      <rect id="Rectangle_354" data-name="Rectangle 354" width="10.774" height="5.778" transform="translate(105.657 101.812)" fill="#d5e7f7"/>
      <rect id="Rectangle_355" data-name="Rectangle 355" width="10.774" height="5.778" transform="translate(92.09 101.812)" fill="#d5e7f7"/>
      <rect id="Rectangle_356" data-name="Rectangle 356" width="10.774" height="5.778" transform="translate(78.785 101.812)" fill="#d5e7f7"/>
      <rect id="Rectangle_357" data-name="Rectangle 357" width="5.55" height="31.465" transform="translate(71.348 98.159)" fill="#adc9e0"/>
      <rect id="Rectangle_358" data-name="Rectangle 358" width="5.55" height="37.55" transform="translate(2.499 92.074)" fill="#adc9e0"/>
      <rect id="Rectangle_359" data-name="Rectangle 359" width="5.958" height="26.082" transform="translate(7.878 103.02)" fill="#adc9e0"/>
      <g id="Group_2269" data-name="Group 2269" transform="translate(18.132 92.223)">
        <path id="Path_615" data-name="Path 615" d="M1949.039,1428.779a.62.62,0,1,0,1.112-.415,12.627,12.627,0,0,0-1.283-1.742A12.6,12.6,0,0,0,1949.039,1428.779Z" transform="translate(-1948.869 -1416.431)" fill="#dceaf9"/>
        <path id="Path_616" data-name="Path 616" d="M1927.092,1355.007c.154.414.528.656.836.542a.72.72,0,0,0,.277-.956,12.642,12.642,0,0,0-1.283-1.742A12.654,12.654,0,0,0,1927.092,1355.007Z" transform="translate(-1923.89 -1352.85)" fill="#dceaf9"/>
        <path id="Path_617" data-name="Path 617" d="M1842.966,1466.249a.62.62,0,1,0,1.113-.415,12.653,12.653,0,0,0-1.283-1.742A12.627,12.627,0,0,0,1842.966,1466.249Z" transform="translate(-1828.143 -1448.726)" fill="#dceaf9"/>
      </g>
      <path id="Path_618" data-name="Path 618" d="M1923.651,1583.971s1.071,2.311-1.014,2.48-3.325-.676-3.832-1.691c0,0,2.593,1.071,2.2-.226a30.736,30.736,0,0,0-1.409-3.382s2.2,3.947,3.292,3.757C1923.374,1584.826,1923.651,1583.971,1923.651,1583.971Z" transform="translate(-1900.292 -1457.393)" fill="#ebf2f9"/>
      <rect id="Rectangle_360" data-name="Rectangle 360" width="0.301" height="2.442" transform="translate(160.52 42.494)" fill="#dceaf9"/>
      <rect id="Rectangle_361" data-name="Rectangle 361" width="0.301" height="2.442" transform="translate(149.721 42.494)" fill="#dceaf9"/>
      <rect id="Rectangle_362" data-name="Rectangle 362" width="31.826" height="37.119" transform="translate(7.878 91.982)" fill="#d5e7f7"/>
      <rect id="Rectangle_363" data-name="Rectangle 363" width="0.588" height="7.526" transform="translate(10.012 84.548)" fill="#d5e7f7"/>
      <g id="Group_2280" data-name="Group 2280" transform="translate(0 98.911)">
        <rect id="Rectangle_364" data-name="Rectangle 364" width="39.704" height="26.702" transform="translate(0 3.489)" fill="#d5e7f7"/>
        <rect id="Rectangle_365" data-name="Rectangle 365" width="39.704" height="8.679" fill="#c4d9ed"/>
        <g id="Group_2279" data-name="Group 2279" transform="translate(1.962 11.251)">
          <g id="Group_2272" data-name="Group 2272">
            <g id="Group_2270" data-name="Group 2270" transform="translate(18.321)">
              <rect id="Rectangle_366" data-name="Rectangle 366" width="2.039" height="2.874" transform="translate(14.678)" fill="#c4d9ed"/>
              <rect id="Rectangle_367" data-name="Rectangle 367" width="2.039" height="2.874" transform="translate(10.865)" fill="#c4d9ed"/>
              <rect id="Rectangle_368" data-name="Rectangle 368" width="2.039" height="2.874" transform="translate(7.137)" fill="#c4d9ed"/>
              <rect id="Rectangle_369" data-name="Rectangle 369" width="2.039" height="2.874" transform="translate(3.602)" fill="#c4d9ed"/>
              <rect id="Rectangle_370" data-name="Rectangle 370" width="2.039" height="2.874" transform="translate(0)" fill="#c4d9ed"/>
            </g>
            <g id="Group_2271" data-name="Group 2271" transform="translate(0)">
              <rect id="Rectangle_371" data-name="Rectangle 371" width="2.039" height="2.874" transform="translate(14.678)" fill="#c4d9ed"/>
              <rect id="Rectangle_372" data-name="Rectangle 372" width="2.039" height="2.874" transform="translate(10.865)" fill="#c4d9ed"/>
              <rect id="Rectangle_373" data-name="Rectangle 373" width="2.039" height="2.874" transform="translate(7.137)" fill="#c4d9ed"/>
              <rect id="Rectangle_374" data-name="Rectangle 374" width="2.039" height="2.874" transform="translate(3.602)" fill="#c4d9ed"/>
              <rect id="Rectangle_375" data-name="Rectangle 375" width="2.039" height="2.874" transform="translate(0)" fill="#c4d9ed"/>
            </g>
          </g>
          <g id="Group_2275" data-name="Group 2275" transform="translate(0 5.072)">
            <g id="Group_2273" data-name="Group 2273" transform="translate(18.321)">
              <rect id="Rectangle_376" data-name="Rectangle 376" width="2.039" height="2.874" transform="translate(14.678)" fill="#c4d9ed"/>
              <rect id="Rectangle_377" data-name="Rectangle 377" width="2.039" height="2.874" transform="translate(10.865)" fill="#c4d9ed"/>
              <rect id="Rectangle_378" data-name="Rectangle 378" width="2.039" height="2.874" transform="translate(7.137)" fill="#c4d9ed"/>
              <rect id="Rectangle_379" data-name="Rectangle 379" width="2.039" height="2.874" transform="translate(3.602)" fill="#c4d9ed"/>
              <rect id="Rectangle_380" data-name="Rectangle 380" width="2.039" height="2.874" transform="translate(0)" fill="#c4d9ed"/>
            </g>
            <g id="Group_2274" data-name="Group 2274" transform="translate(0)">
              <rect id="Rectangle_381" data-name="Rectangle 381" width="2.039" height="2.874" transform="translate(14.678)" fill="#c4d9ed"/>
              <rect id="Rectangle_382" data-name="Rectangle 382" width="2.039" height="2.874" transform="translate(10.865)" fill="#c4d9ed"/>
              <rect id="Rectangle_383" data-name="Rectangle 383" width="2.039" height="2.874" transform="translate(7.137)" fill="#c4d9ed"/>
              <rect id="Rectangle_384" data-name="Rectangle 384" width="2.039" height="2.874" transform="translate(3.602)" fill="#c4d9ed"/>
              <rect id="Rectangle_385" data-name="Rectangle 385" width="2.039" height="2.874" transform="translate(0)" fill="#c4d9ed"/>
            </g>
          </g>
          <g id="Group_2278" data-name="Group 2278" transform="translate(0 10.066)">
            <g id="Group_2276" data-name="Group 2276" transform="translate(18.321)">
              <rect id="Rectangle_386" data-name="Rectangle 386" width="2.039" height="2.874" transform="translate(14.678)" fill="#c4d9ed"/>
              <rect id="Rectangle_387" data-name="Rectangle 387" width="2.039" height="2.874" transform="translate(10.865)" fill="#c4d9ed"/>
              <rect id="Rectangle_388" data-name="Rectangle 388" width="2.039" height="2.874" transform="translate(7.137)" fill="#c4d9ed"/>
              <rect id="Rectangle_389" data-name="Rectangle 389" width="2.039" height="2.874" transform="translate(3.602)" fill="#c4d9ed"/>
              <rect id="Rectangle_390" data-name="Rectangle 390" width="2.039" height="2.874" transform="translate(0)" fill="#c4d9ed"/>
            </g>
            <g id="Group_2277" data-name="Group 2277" transform="translate(0)">
              <rect id="Rectangle_391" data-name="Rectangle 391" width="2.039" height="2.874" transform="translate(14.678)" fill="#c4d9ed"/>
              <rect id="Rectangle_392" data-name="Rectangle 392" width="2.039" height="2.874" transform="translate(10.865)" fill="#c4d9ed"/>
              <rect id="Rectangle_393" data-name="Rectangle 393" width="2.039" height="2.874" transform="translate(7.137)" fill="#c4d9ed"/>
              <rect id="Rectangle_394" data-name="Rectangle 394" width="2.039" height="2.874" transform="translate(3.602)" fill="#c4d9ed"/>
              <rect id="Rectangle_395" data-name="Rectangle 395" width="2.039" height="2.874" transform="translate(0)" fill="#c4d9ed"/>
            </g>
          </g>
        </g>
        <rect id="Rectangle_396" data-name="Rectangle 396" width="1.713" height="2.965" transform="translate(34.961 2.438)" fill="#adc9e0"/>
        <rect id="Rectangle_397" data-name="Rectangle 397" width="1.713" height="2.965" transform="translate(17.95 2.438)" fill="#adc9e0"/>
        <rect id="Rectangle_398" data-name="Rectangle 398" width="1.713" height="2.965" transform="translate(4.417 2.438)" fill="#adc9e0"/>
      </g>
      <g id="Group_2291" data-name="Group 2291" transform="translate(167.025 98.911)">
        <rect id="Rectangle_399" data-name="Rectangle 399" width="39.704" height="26.702" transform="translate(0 3.489)" fill="#d5e7f7"/>
        <rect id="Rectangle_400" data-name="Rectangle 400" width="39.704" height="8.679" fill="#c4d9ed"/>
        <g id="Group_2290" data-name="Group 2290" transform="translate(1.962 11.251)">
          <g id="Group_2283" data-name="Group 2283">
            <g id="Group_2281" data-name="Group 2281" transform="translate(18.322)">
              <rect id="Rectangle_401" data-name="Rectangle 401" width="2.039" height="2.874" transform="translate(14.678)" fill="#c4d9ed"/>
              <rect id="Rectangle_402" data-name="Rectangle 402" width="2.039" height="2.874" transform="translate(10.865)" fill="#c4d9ed"/>
              <rect id="Rectangle_403" data-name="Rectangle 403" width="2.039" height="2.874" transform="translate(7.137)" fill="#c4d9ed"/>
              <rect id="Rectangle_404" data-name="Rectangle 404" width="2.039" height="2.874" transform="translate(3.602)" fill="#c4d9ed"/>
              <rect id="Rectangle_405" data-name="Rectangle 405" width="2.039" height="2.874" transform="translate(0)" fill="#c4d9ed"/>
            </g>
            <g id="Group_2282" data-name="Group 2282" transform="translate(0)">
              <rect id="Rectangle_406" data-name="Rectangle 406" width="2.039" height="2.874" transform="translate(14.678)" fill="#c4d9ed"/>
              <rect id="Rectangle_407" data-name="Rectangle 407" width="2.039" height="2.874" transform="translate(10.865)" fill="#c4d9ed"/>
              <rect id="Rectangle_408" data-name="Rectangle 408" width="2.039" height="2.874" transform="translate(7.137)" fill="#c4d9ed"/>
              <rect id="Rectangle_409" data-name="Rectangle 409" width="2.039" height="2.874" transform="translate(3.602)" fill="#c4d9ed"/>
              <rect id="Rectangle_410" data-name="Rectangle 410" width="2.039" height="2.874" fill="#c4d9ed"/>
            </g>
          </g>
          <g id="Group_2286" data-name="Group 2286" transform="translate(0 5.072)">
            <g id="Group_2284" data-name="Group 2284" transform="translate(18.322)">
              <rect id="Rectangle_411" data-name="Rectangle 411" width="2.039" height="2.874" transform="translate(14.678)" fill="#c4d9ed"/>
              <rect id="Rectangle_412" data-name="Rectangle 412" width="2.039" height="2.874" transform="translate(10.865)" fill="#c4d9ed"/>
              <rect id="Rectangle_413" data-name="Rectangle 413" width="2.039" height="2.874" transform="translate(7.137)" fill="#c4d9ed"/>
              <rect id="Rectangle_414" data-name="Rectangle 414" width="2.039" height="2.874" transform="translate(3.602)" fill="#c4d9ed"/>
              <rect id="Rectangle_415" data-name="Rectangle 415" width="2.039" height="2.874" transform="translate(0)" fill="#c4d9ed"/>
            </g>
            <g id="Group_2285" data-name="Group 2285" transform="translate(0)">
              <rect id="Rectangle_416" data-name="Rectangle 416" width="2.039" height="2.874" transform="translate(14.678)" fill="#c4d9ed"/>
              <rect id="Rectangle_417" data-name="Rectangle 417" width="2.039" height="2.874" transform="translate(10.865)" fill="#c4d9ed"/>
              <rect id="Rectangle_418" data-name="Rectangle 418" width="2.039" height="2.874" transform="translate(7.137)" fill="#c4d9ed"/>
              <rect id="Rectangle_419" data-name="Rectangle 419" width="2.039" height="2.874" transform="translate(3.602)" fill="#c4d9ed"/>
              <rect id="Rectangle_420" data-name="Rectangle 420" width="2.039" height="2.874" fill="#c4d9ed"/>
            </g>
          </g>
          <g id="Group_2289" data-name="Group 2289" transform="translate(0 10.066)">
            <g id="Group_2287" data-name="Group 2287" transform="translate(18.322)">
              <rect id="Rectangle_421" data-name="Rectangle 421" width="2.039" height="2.874" transform="translate(14.678)" fill="#c4d9ed"/>
              <rect id="Rectangle_422" data-name="Rectangle 422" width="2.039" height="2.874" transform="translate(10.865)" fill="#c4d9ed"/>
              <rect id="Rectangle_423" data-name="Rectangle 423" width="2.039" height="2.874" transform="translate(7.137)" fill="#c4d9ed"/>
              <rect id="Rectangle_424" data-name="Rectangle 424" width="2.039" height="2.874" transform="translate(3.602)" fill="#c4d9ed"/>
              <rect id="Rectangle_425" data-name="Rectangle 425" width="2.039" height="2.874" transform="translate(0)" fill="#c4d9ed"/>
            </g>
            <g id="Group_2288" data-name="Group 2288" transform="translate(0)">
              <rect id="Rectangle_426" data-name="Rectangle 426" width="2.039" height="2.874" transform="translate(14.678)" fill="#c4d9ed"/>
              <rect id="Rectangle_427" data-name="Rectangle 427" width="2.039" height="2.874" transform="translate(10.865)" fill="#c4d9ed"/>
              <rect id="Rectangle_428" data-name="Rectangle 428" width="2.039" height="2.874" transform="translate(7.137)" fill="#c4d9ed"/>
              <rect id="Rectangle_429" data-name="Rectangle 429" width="2.039" height="2.874" transform="translate(3.602)" fill="#c4d9ed"/>
              <rect id="Rectangle_430" data-name="Rectangle 430" width="2.039" height="2.874" fill="#c4d9ed"/>
            </g>
          </g>
        </g>
        <rect id="Rectangle_431" data-name="Rectangle 431" width="1.714" height="2.965" transform="translate(34.961 2.438)" fill="#adc9e0"/>
        <rect id="Rectangle_432" data-name="Rectangle 432" width="1.714" height="2.965" transform="translate(17.95 2.438)" fill="#adc9e0"/>
        <rect id="Rectangle_433" data-name="Rectangle 433" width="1.713" height="2.965" transform="translate(4.417 2.438)" fill="#adc9e0"/>
      </g>
      <g id="Group_2302" data-name="Group 2302" transform="translate(209.222 98.911)">
        <path id="Path_619" data-name="Path 619" d="M287.8,1426.493v26.7H322.7l4.817-5.214v-21.486Z" transform="translate(-287.803 -1423.008)" fill="#d5e7f7"/>
        <rect id="Rectangle_434" data-name="Rectangle 434" width="39.704" height="8.679" transform="translate(0)" fill="#c4d9ed"/>
        <g id="Group_2301" data-name="Group 2301" transform="translate(1.962 11.251)">
          <g id="Group_2294" data-name="Group 2294">
            <g id="Group_2292" data-name="Group 2292" transform="translate(18.322)">
              <rect id="Rectangle_435" data-name="Rectangle 435" width="2.039" height="2.874" transform="translate(14.678)" fill="#c4d9ed"/>
              <rect id="Rectangle_436" data-name="Rectangle 436" width="2.039" height="2.874" transform="translate(10.865)" fill="#c4d9ed"/>
              <rect id="Rectangle_437" data-name="Rectangle 437" width="2.039" height="2.874" transform="translate(7.137)" fill="#c4d9ed"/>
              <rect id="Rectangle_438" data-name="Rectangle 438" width="2.039" height="2.874" transform="translate(3.602)" fill="#c4d9ed"/>
              <rect id="Rectangle_439" data-name="Rectangle 439" width="2.039" height="2.874" fill="#c4d9ed"/>
            </g>
            <g id="Group_2293" data-name="Group 2293" transform="translate(0)">
              <rect id="Rectangle_440" data-name="Rectangle 440" width="2.039" height="2.874" transform="translate(14.678)" fill="#c4d9ed"/>
              <rect id="Rectangle_441" data-name="Rectangle 441" width="2.039" height="2.874" transform="translate(10.865)" fill="#c4d9ed"/>
              <rect id="Rectangle_442" data-name="Rectangle 442" width="2.039" height="2.874" transform="translate(7.137)" fill="#c4d9ed"/>
              <rect id="Rectangle_443" data-name="Rectangle 443" width="2.039" height="2.874" transform="translate(3.602)" fill="#c4d9ed"/>
              <rect id="Rectangle_444" data-name="Rectangle 444" width="2.039" height="2.874" transform="translate(0)" fill="#c4d9ed"/>
            </g>
          </g>
          <g id="Group_2297" data-name="Group 2297" transform="translate(0 5.072)">
            <g id="Group_2295" data-name="Group 2295" transform="translate(18.322)">
              <rect id="Rectangle_445" data-name="Rectangle 445" width="2.039" height="2.874" transform="translate(14.678)" fill="#c4d9ed"/>
              <rect id="Rectangle_446" data-name="Rectangle 446" width="2.039" height="2.874" transform="translate(10.865)" fill="#c4d9ed"/>
              <rect id="Rectangle_447" data-name="Rectangle 447" width="2.039" height="2.874" transform="translate(7.137)" fill="#c4d9ed"/>
              <rect id="Rectangle_448" data-name="Rectangle 448" width="2.039" height="2.874" transform="translate(3.602)" fill="#c4d9ed"/>
              <rect id="Rectangle_449" data-name="Rectangle 449" width="2.039" height="2.874" fill="#c4d9ed"/>
            </g>
            <g id="Group_2296" data-name="Group 2296" transform="translate(0)">
              <rect id="Rectangle_450" data-name="Rectangle 450" width="2.039" height="2.874" transform="translate(14.678)" fill="#c4d9ed"/>
              <rect id="Rectangle_451" data-name="Rectangle 451" width="2.039" height="2.874" transform="translate(10.865)" fill="#c4d9ed"/>
              <rect id="Rectangle_452" data-name="Rectangle 452" width="2.039" height="2.874" transform="translate(7.137)" fill="#c4d9ed"/>
              <rect id="Rectangle_453" data-name="Rectangle 453" width="2.039" height="2.874" transform="translate(3.602)" fill="#c4d9ed"/>
              <rect id="Rectangle_454" data-name="Rectangle 454" width="2.039" height="2.874" transform="translate(0)" fill="#c4d9ed"/>
            </g>
          </g>
          <g id="Group_2300" data-name="Group 2300" transform="translate(0 10.066)">
            <g id="Group_2298" data-name="Group 2298" transform="translate(18.322)">
              <rect id="Rectangle_455" data-name="Rectangle 455" width="2.039" height="2.874" transform="translate(14.678)" fill="#c4d9ed"/>
              <rect id="Rectangle_456" data-name="Rectangle 456" width="2.039" height="2.874" transform="translate(10.865)" fill="#c4d9ed"/>
              <rect id="Rectangle_457" data-name="Rectangle 457" width="2.039" height="2.874" transform="translate(7.137)" fill="#c4d9ed"/>
              <rect id="Rectangle_458" data-name="Rectangle 458" width="2.039" height="2.874" transform="translate(3.602)" fill="#c4d9ed"/>
              <rect id="Rectangle_459" data-name="Rectangle 459" width="2.039" height="2.874" fill="#c4d9ed"/>
            </g>
            <g id="Group_2299" data-name="Group 2299" transform="translate(0)">
              <rect id="Rectangle_460" data-name="Rectangle 460" width="2.039" height="2.874" transform="translate(14.678)" fill="#c4d9ed"/>
              <rect id="Rectangle_461" data-name="Rectangle 461" width="2.039" height="2.874" transform="translate(10.865)" fill="#c4d9ed"/>
              <rect id="Rectangle_462" data-name="Rectangle 462" width="2.039" height="2.874" transform="translate(7.137)" fill="#c4d9ed"/>
              <rect id="Rectangle_463" data-name="Rectangle 463" width="2.039" height="2.874" transform="translate(3.602)" fill="#c4d9ed"/>
              <rect id="Rectangle_464" data-name="Rectangle 464" width="2.039" height="2.874" transform="translate(0)" fill="#c4d9ed"/>
            </g>
          </g>
        </g>
        <rect id="Rectangle_465" data-name="Rectangle 465" width="1.714" height="2.965" transform="translate(34.961 2.438)" fill="#adc9e0"/>
        <rect id="Rectangle_466" data-name="Rectangle 466" width="1.714" height="2.965" transform="translate(17.95 2.438)" fill="#adc9e0"/>
        <rect id="Rectangle_467" data-name="Rectangle 467" width="1.713" height="2.965" transform="translate(4.417 2.438)" fill="#adc9e0"/>
      </g>
      <g id="Group_2303" data-name="Group 2303" transform="translate(251.516 98.904)">
        <path id="Path_620" data-name="Path 620" d="M255.451,1426.493v16.7a26.288,26.288,0,0,0,1.887-10.015c0-.165,0-.348-.016-.529,0-.314-.017-.646-.017-.96q-.025-.422-.05-.844c-.083-1.026-.2-2.053-.364-3.078,0-.034-.017-.066-.017-.1a5.137,5.137,0,0,1-.083-.53c-.033-.215-.083-.43-.132-.646Z" transform="translate(-255.451 -1423.001)" fill="#d5e7f7"/>
        <path id="Path_621" data-name="Path 621" d="M255.69,1401.211v8.69h1.854q-.025-.422-.05-.844c-.083-1.026-.2-2.053-.364-3.079,0-.034-.017-.066-.017-.1a5.136,5.136,0,0,1-.083-.53c-.033-.215-.083-.43-.132-.646-.149-.761-.331-1.522-.53-2.3-.033-.183-.083-.365-.132-.546-.066-.215-.116-.43-.2-.646Z" transform="translate(-255.69 -1401.211)" fill="#c4d9ed"/>
      </g>
    </g>
    <path id="Path_622" data-name="Path 622" d="M1564.917,1318.125q.24,1.416.512,2.793c.041.209.081.417.124.624l.022.115c.115.559.232,1.114.354,1.663q.328,1.482.68,2.908c.043.175.087.349.13.522.629,2.482,1.309,4.828,2.009,7.013.117.364.234.725.352,1.08.317.959.636,1.885.953,2.775q.341.952.68,1.849c1.209,3.214,2.372,5.884,3.312,7.9.877,1.879,1.633,3.449,2.013,4.239H1755.81v-37.475c-13.7,1.053-31.9-10.5-45.167-3.4-15.025,8.035-54.192,28.147-79.177,13.607C1609.822,1311.732,1579.093,1312.284,1564.917,1318.125Z" transform="translate(-1561.849 -1169.799)" fill="#c4d9ed" opacity="0.4"/>
    <path id="Rectangle_468" data-name="Rectangle 468" d="M.514,0H387.486A.514.514,0,0,1,388,.514v0a.515.515,0,0,1-.515.515H.515A.515.515,0,0,1,0,.514v0A.514.514,0,0,1,.514,0Z" transform="translate(0 181.363)" fill="#2e3552"/>
    <path id="Path_623" data-name="Path 623" d="M2635.755,1529.58h12.758c.684-.58-.473-1.9-1.682-1.986a7.462,7.462,0,0,0-1.947.23c-.176-2.332-1.178-12.815-4.957-12.393-4.249.471,0,4.617,1.2,7.07a58.365,58.365,0,0,1,2.257,5.655c-.345.075-.7.148-1.067.215-.563-1.729-2.658-7.545-5.323-7.206-3.128.4-1.871,2.729.346,4.113,1.627,1.018,3.625,2.465,4.574,3.164a13.523,13.523,0,0,1-2.5.2A5.378,5.378,0,0,0,2635.755,1529.58Z" transform="translate(-2602.59 -1348.217)" fill="#a8d29f"/>
    <path id="Path_624" data-name="Path 624" d="M400.978,1544.958c.6-.941,2.4-3.384,4.8-3.061,2.617.352-2.89,2.077-4.576,3.068a2.8,2.8,0,0,0,.933-.109c1.127-.4,3.057.369,3.675.639H395.083a1.7,1.7,0,0,1,.767-.981,1.918,1.918,0,0,1,.988-.088c-.638-.752-1.081-3.155.7-2.537,1.3.452,1.294,1.92,1.167,2.789.276.043.556.087.832.127.534-2.723,2.424-10.7,6.254-10.915,3.883-.216-3.292,8.276-5.682,10.991C400.41,1544.917,400.705,1544.945,400.978,1544.958Z" transform="translate(-51.359 -1364.131)" fill="#a8d29f"/>
    <path id="Path_625" data-name="Path 625" d="M659.525,1028.776a20.951,20.951,0,0,1,20.956,20.956c0,11.571-20.956,37.293-20.956,37.293s-9.518-11.686-15.709-22.843c-3.013-5.4-5.247-10.677-5.247-14.451A20.961,20.961,0,0,1,659.525,1028.776Zm0,30.523a9.864,9.864,0,1,0-2.135-.248A9.057,9.057,0,0,0,659.525,1059.3Z" transform="translate(-358.558 -928.797)" fill="#c4dfaa"/>
    <path id="Path_626" data-name="Path 626" d="M2655.24,1251.087a9.3,9.3,0,0,1,9.3,9.3c0,5.137-9.3,16.556-9.3,16.556s-9.3-11.42-9.3-16.556A9.3,9.3,0,0,1,2655.24,1251.087Zm0,13.553a4.347,4.347,0,1,0-4.347-4.347A4.348,4.348,0,0,0,2655.24,1264.64Z" transform="translate(-2619.908 -1120.398)" fill="#c4dfaa"/>
    <path id="Path_627" data-name="Path 627" d="M450.655,1327.572a5.093,5.093,0,0,1,5.093,5.093c0,2.813-5.093,9.067-5.093,9.067s-5.093-6.254-5.093-9.067A5.093,5.093,0,0,1,450.655,1327.572Zm0,7.422a2.381,2.381,0,1,0-2.381-2.381A2.381,2.381,0,0,0,450.655,1334.994Z" transform="translate(-107.164 -1186.318)" fill="#90c8ac"/>
    <g id="Group_2305" data-name="Group 2305" transform="translate(167.67 159.076)">
      <path id="Path_628" data-name="Path 628" d="M981.449,1478.88s-3.651-10.9-14.109-12.993-18.2,6.092-27.519,2.9-24.005-20.085-41.486-7.739-16.335,15.863-27.36,12.978-13.547,4.854-13.547,4.854Z" transform="translate(-857.428 -1456.593)" fill="#a8d29f"/>
      <path id="Path_629" data-name="Path 629" d="M847.158,1504.926s7.628-8,11.525-5.854S847.158,1504.926,847.158,1504.926Z" transform="translate(-733.875 -1492.889)" fill="#a8d29f"/>
      <path id="Path_630" data-name="Path 630" d="M855.994,1549.217s7.031-2.292,8.792-1.146S855.994,1549.217,855.994,1549.217Z" transform="translate(-740.765 -1535.158)" fill="#a8d29f"/>
      <path id="Path_631" data-name="Path 631" d="M1089.746,1496.231s-4.832-10.841-6.508-8.868S1089.746,1496.231,1089.746,1496.231Z" transform="translate(-996.886 -1482.906)" fill="#a8d29f"/>
      <path id="Path_632" data-name="Path 632" d="M1059.985,1501.163s-1.972-7.938.986-7.445S1059.985,1501.163,1059.985,1501.163Z" transform="translate(-965.942 -1488.571)" fill="#a8d29f"/>
    </g>
    <g id="Group_2306" data-name="Group 2306" transform="translate(37.857 43.041)">
      <path id="Path_633" data-name="Path 633" d="M416.1,699.98c.01-.031.241-.78.74-2.14a.369.369,0,1,1,.694.255c-.49,1.34-.723,2.1-.726,2.1a.37.37,0,0,1-.354.262.385.385,0,0,1-.108-.016A.372.372,0,0,1,416.1,699.98Zm1.537-4.233c.265-.673.549-1.37.842-2.071a.37.37,0,0,1,.682.285c-.292.7-.573,1.389-.836,2.056a.372.372,0,0,1-.345.235.364.364,0,0,1-.134-.027A.369.369,0,0,1,417.638,695.747Zm289.33-1.5c.661-.325,1.341-.644,2.02-.947a.37.37,0,1,1,.3.676c-.67.3-1.342.612-1.994.935a.37.37,0,1,1-.327-.664Zm4.074-1.815c.685-.275,1.386-.543,2.084-.794a.37.37,0,1,1,.25.7c-.689.249-1.381.512-2.059.784a.37.37,0,0,1-.481-.206A.37.37,0,0,1,711.042,692.435Zm-291.679-.809c.3-.668.6-1.352.92-2.032a.37.37,0,0,1,.67.312c-.312.674-.62,1.355-.914,2.019a.366.366,0,0,1-.337.22.383.383,0,0,1-.149-.031A.37.37,0,0,1,419.362,691.626Zm295.873-.7c.7-.226,1.416-.444,2.132-.648a.369.369,0,0,1,.2.71c-.708.2-1.419.419-2.109.642a.37.37,0,0,1-.466-.24A.369.369,0,0,1,715.235,690.922Zm4.284-1.226c.713-.18,1.444-.352,2.168-.512a.369.369,0,1,1,.158.722c-.717.158-1.439.328-2.146.506a.366.366,0,0,1-.448-.268A.368.368,0,0,1,719.519,689.7Zm4.35-.959c.722-.137,1.46-.266,2.194-.384a.37.37,0,0,1,.117.731c-.726.117-1.458.244-2.173.38a.364.364,0,0,1-.432-.294A.369.369,0,0,1,723.869,688.737Zm4.4-.708c.725-.1,1.467-.188,2.21-.268a.37.37,0,0,1,.08.735c-.735.08-1.473.169-2.192.265a.267.267,0,0,1-.049,0,.369.369,0,0,1-.049-.735Zm-307.029-.45c.321-.663.654-1.334.99-2a.37.37,0,1,1,.66.333c-.333.66-.664,1.328-.984,1.986a.37.37,0,1,1-.666-.322Zm2.01-3.977c.343-.652.7-1.312,1.053-1.963a.37.37,0,0,1,.649.355c-.354.646-.707,1.3-1.047,1.952a.371.371,0,0,1-.328.2.368.368,0,0,1-.327-.541Zm2.138-3.908c.365-.642.74-1.291,1.115-1.929a.37.37,0,0,1,.638.376c-.374.634-.747,1.279-1.11,1.919a.37.37,0,1,1-.643-.365Zm227.922-3.748a.368.368,0,0,1,.515.089c.426.6.855,1.217,1.272,1.825a.37.37,0,0,1-.609.419c-.416-.606-.841-1.217-1.266-1.816A.37.37,0,0,1,653.307,675.945Zm-225.661-.089c.388-.634.782-1.27,1.176-1.89a.369.369,0,1,1,.624.395c-.39.617-.784,1.25-1.17,1.88a.369.369,0,1,1-.63-.385Zm223.037-3.492a.371.371,0,0,1,.518.074c.445.593.891,1.2,1.324,1.788a.37.37,0,0,1-.6.437c-.43-.592-.874-1.191-1.316-1.78A.372.372,0,0,1,650.683,672.364Zm-220.655-.271c.407-.62.824-1.242,1.237-1.852a.37.37,0,0,1,.612.416c-.411.606-.825,1.226-1.229,1.843a.37.37,0,0,1-.31.167.381.381,0,0,1-.2-.061A.373.373,0,0,1,430.027,672.093Zm217.929-3.23a.369.369,0,0,1,.519.058c.46.575.923,1.164,1.376,1.748a.37.37,0,0,1-.065.519.375.375,0,0,1-.226.077.37.37,0,0,1-.293-.142c-.451-.583-.911-1.169-1.368-1.741A.369.369,0,0,1,647.957,668.863ZM432.53,668.41c.424-.6.861-1.213,1.294-1.809a.37.37,0,0,1,.6.435c-.432.593-.865,1.2-1.288,1.8a.371.371,0,0,1-.3.157.358.358,0,0,1-.212-.067A.37.37,0,0,1,432.53,668.41Zm212.6-2.967a.372.372,0,0,1,.522.043c.475.561.956,1.135,1.426,1.707a.367.367,0,0,1-.05.519.363.363,0,0,1-.235.086.372.372,0,0,1-.286-.136c-.467-.568-.945-1.14-1.419-1.7A.368.368,0,0,1,645.127,665.443Zm-209.977-.632c.445-.59.9-1.185,1.355-1.766a.369.369,0,1,1,.583.454c-.451.578-.9,1.17-1.348,1.757a.37.37,0,0,1-.59-.445Zm207.046-2.7a.371.371,0,0,1,.522.027c.5.549.993,1.108,1.479,1.663a.37.37,0,0,1-.036.522.363.363,0,0,1-.243.092.369.369,0,0,1-.278-.126c-.485-.553-.979-1.109-1.472-1.655A.371.371,0,0,1,642.2,662.11ZM437.888,661.3c.464-.577.939-1.155,1.412-1.72a.369.369,0,1,1,.567.473c-.469.564-.942,1.139-1.4,1.711a.372.372,0,0,1-.288.138.37.37,0,0,1-.287-.6Zm201.275-2.429a.368.368,0,0,1,.522.01c.515.534,1.029,1.078,1.529,1.615a.37.37,0,1,1-.541.5c-.5-.534-1.01-1.075-1.521-1.608A.368.368,0,0,1,639.163,658.872Zm-198.422-.988c.485-.561.979-1.123,1.47-1.671a.37.37,0,0,1,.552.494c-.49.546-.981,1.1-1.463,1.661a.37.37,0,0,1-.28.129.365.365,0,0,1-.241-.09A.37.37,0,0,1,440.741,657.884Zm195.288-2.154a.368.368,0,0,1,.522-.006c.525.512,1.058,1.04,1.58,1.566a.37.37,0,1,1-.525.521c-.519-.524-1.049-1.049-1.571-1.559A.368.368,0,0,1,636.029,655.731ZM443.71,654.568c.506-.544,1.019-1.089,1.528-1.618a.37.37,0,1,1,.534.512c-.506.527-1.016,1.068-1.519,1.609a.37.37,0,0,1-.543-.5Zm189.084-1.876a.371.371,0,0,1,.524-.024c.543.5,1.092,1.006,1.629,1.515a.369.369,0,1,1-.507.537c-.536-.5-1.08-1.012-1.621-1.506A.37.37,0,0,1,632.793,652.693Zm-186-1.334c.522-.525,1.055-1.05,1.584-1.563a.37.37,0,1,1,.515.531c-.527.51-1.056,1.032-1.576,1.555a.37.37,0,0,1-.524-.522Zm182.669-1.6a.37.37,0,0,1,.522-.04c.559.478,1.123.969,1.679,1.46a.37.37,0,0,1,.031.522.366.366,0,0,1-.277.124.372.372,0,0,1-.245-.093c-.552-.488-1.112-.976-1.669-1.452A.37.37,0,0,1,629.462,649.761Zm-3.426-2.819a.369.369,0,0,1,.519-.058c.577.46,1.157.933,1.726,1.4a.37.37,0,1,1-.472.569c-.565-.467-1.143-.938-1.716-1.395A.371.371,0,0,1,626.037,646.942Zm-176.046,1.32c.54-.506,1.092-1.012,1.639-1.506a.37.37,0,0,1,.5.55c-.544.49-1.093.992-1.63,1.5a.369.369,0,0,1-.5-.54Zm172.528-4.022a.37.37,0,0,1,.518-.074c.589.438,1.185.89,1.772,1.345a.369.369,0,1,1-.453.584c-.583-.45-1.176-.9-1.762-1.337A.369.369,0,0,1,622.518,644.239ZM453.3,645.28c.558-.484,1.127-.969,1.693-1.444a.37.37,0,1,1,.475.568c-.563.472-1.13.954-1.683,1.435a.37.37,0,0,1-.522-.037A.371.371,0,0,1,453.3,645.28Zm165.612-3.622a.37.37,0,0,1,.515-.092c.607.42,1.217.852,1.818,1.284a.37.37,0,0,1-.432.6c-.6-.43-1.206-.859-1.807-1.278A.371.371,0,0,1,618.908,641.658Zm-162.2.768c.578-.466,1.166-.929,1.747-1.379a.369.369,0,1,1,.453.584c-.577.447-1.161.908-1.737,1.371a.366.366,0,0,1-.231.081.37.37,0,0,1-.232-.658Zm158.5-3.223a.37.37,0,0,1,.512-.111c.62.4,1.245.811,1.859,1.222a.37.37,0,0,1-.207.677.361.361,0,0,1-.2-.064c-.611-.408-1.232-.817-1.849-1.213A.371.371,0,0,1,615.215,639.2Zm-154.984.5c.595-.442,1.2-.883,1.8-1.31a.37.37,0,1,1,.43.6c-.595.425-1.2.862-1.787,1.3a.371.371,0,0,1-.442-.595Zm151.208-2.827a.371.371,0,0,1,.507-.129c.632.379,1.272.768,1.9,1.157a.37.37,0,0,1-.2.685.359.359,0,0,1-.194-.056c-.626-.387-1.26-.774-1.89-1.149A.37.37,0,0,1,611.439,636.874Zm-147.587.24c.611-.419,1.232-.835,1.848-1.241a.37.37,0,1,1,.407.618c-.611.4-1.229.816-1.836,1.232a.362.362,0,0,1-.209.065.37.37,0,0,1-.21-.675Zm143.733-2.436a.37.37,0,0,1,.5-.145c.648.356,1.3.723,1.939,1.09a.37.37,0,0,1-.185.691.373.373,0,0,1-.183-.049c-.636-.365-1.284-.731-1.927-1.084A.371.371,0,0,1,607.584,634.678Zm-140.014-.009c.621-.392,1.259-.785,1.895-1.169a.37.37,0,1,1,.382.633c-.632.382-1.265.772-1.882,1.161a.37.37,0,1,1-.395-.626Zm136.087-2.055a.372.372,0,0,1,.5-.163c.657.334,1.321.679,1.975,1.024a.37.37,0,0,1-.173.7.36.36,0,0,1-.173-.043c-.649-.343-1.311-.685-1.964-1.018A.37.37,0,0,1,603.657,632.614Zm-132.275-.244c.641-.371,1.293-.738,1.938-1.093a.37.37,0,1,1,.357.648c-.641.352-1.288.717-1.926,1.086a.374.374,0,0,1-.183.049.369.369,0,0,1-.185-.689Zm128.28-1.683a.372.372,0,0,1,.493-.179c.667.311,1.343.632,2.009.956a.37.37,0,0,1-.163.7.375.375,0,0,1-.161-.038c-.661-.321-1.334-.641-2-.948A.372.372,0,0,1,599.662,630.687Zm-124.382-.464c.655-.345,1.321-.686,1.979-1.016a.37.37,0,0,1,.331.661c-.654.327-1.316.667-1.967,1.009a.36.36,0,0,1-.172.043.37.37,0,0,1-.172-.7ZM595.6,628.9a.369.369,0,0,1,.485-.2c.677.287,1.364.586,2.04.886a.369.369,0,0,1-.151.707.383.383,0,0,1-.149-.031c-.672-.3-1.355-.6-2.029-.882A.37.37,0,0,1,595.6,628.9Zm-116.346-.668c.666-.317,1.345-.633,2.018-.936a.369.369,0,1,1,.3.673c-.668.3-1.343.615-2,.932a.385.385,0,0,1-.16.036.37.37,0,0,1-.158-.7Zm112.229-.984a.371.371,0,0,1,.478-.213c.689.266,1.385.541,2.069.818a.37.37,0,0,1-.139.713.354.354,0,0,1-.139-.028c-.68-.275-1.373-.549-2.058-.812A.369.369,0,0,1,591.488,627.245Zm-108.176-.85c.679-.291,1.37-.58,2.053-.858a.37.37,0,1,1,.278.685c-.679.277-1.365.564-2.04.852a.358.358,0,0,1-.145.03.369.369,0,0,1-.146-.708Zm104.006-.664a.37.37,0,0,1,.472-.228c.7.243,1.4.494,2.095.747a.37.37,0,0,1-.127.717.377.377,0,0,1-.127-.022c-.689-.253-1.39-.5-2.084-.744A.371.371,0,0,1,587.318,625.73Zm-4.216-1.379a.37.37,0,0,1,.463-.242c.708.22,1.421.45,2.118.679a.37.37,0,0,1-.115.722.357.357,0,0,1-.117-.019c-.692-.228-1.4-.455-2.106-.674A.373.373,0,0,1,583.1,624.352Zm-95.668.367c.686-.263,1.387-.525,2.084-.778a.37.37,0,0,1,.253.7c-.692.252-1.391.512-2.073.774a.37.37,0,1,1-.265-.691Zm91.41-1.608a.37.37,0,0,1,.456-.257c.713.2,1.432.4,2.137.611a.37.37,0,0,1-.1.725.379.379,0,0,1-.1-.015c-.7-.207-1.417-.411-2.127-.608A.37.37,0,0,1,578.844,623.111Zm-87.227.093c.7-.238,1.41-.472,2.114-.7a.37.37,0,1,1,.225.7c-.7.223-1.407.457-2.1.692a.363.363,0,0,1-.118.021.37.37,0,0,1-.12-.72Zm82.931-1.2a.37.37,0,0,1,.447-.272c.719.174,1.444.358,2.157.543a.37.37,0,0,1-.093.728.333.333,0,0,1-.093-.012c-.708-.185-1.43-.365-2.145-.54A.371.371,0,0,1,574.548,622.006Zm-78.692-.155c.706-.211,1.424-.419,2.137-.617a.37.37,0,0,1,.2.713c-.708.2-1.423.4-2.124.612a.378.378,0,0,1-.107.016.37.37,0,0,1-.1-.725Zm74.365-.819a.37.37,0,0,1,.438-.286l1.018.22q.579.127,1.154.258a.37.37,0,0,1-.081.731.4.4,0,0,1-.083-.009c-.382-.087-.763-.173-1.148-.256l-1.013-.221A.368.368,0,0,1,570.222,621.031Zm-70.08-.373c.711-.185,1.438-.365,2.158-.537a.37.37,0,1,1,.173.719c-.716.172-1.438.351-2.146.534a.4.4,0,0,1-.093.012.37.37,0,0,1-.092-.728Zm65.728-.5a.37.37,0,0,1,.433-.293c.72.138,1.454.283,2.18.43a.37.37,0,0,1-.073.732.41.41,0,0,1-.074-.007c-.725-.146-1.456-.291-2.173-.429A.37.37,0,0,1,565.87,620.155Zm-61.4-.531c.72-.158,1.453-.312,2.177-.457a.37.37,0,1,1,.145.725c-.719.143-1.448.3-2.164.454a.37.37,0,0,1-.158-.722Zm57.034-.247a.37.37,0,0,1,.426-.3c.726.123,1.463.251,2.191.382a.37.37,0,0,1-.065.734.337.337,0,0,1-.067-.006c-.725-.13-1.458-.259-2.182-.38A.37.37,0,0,1,561.5,619.377Zm-52.673-.63c.726-.132,1.463-.26,2.192-.38a.37.37,0,0,1,.12.731c-.725.118-1.457.246-2.179.377a.33.33,0,0,1-.066.006.37.37,0,0,1-.067-.734Zm48.289-.05a.369.369,0,0,1,.419-.312c.729.1,1.469.217,2.2.331a.37.37,0,0,1-.056.735.408.408,0,0,1-.059,0c-.726-.114-1.463-.225-2.189-.33A.371.371,0,0,1,557.118,618.7Zm-4.4-.574a.372.372,0,0,1,.411-.324c.728.089,1.47.182,2.205.28a.37.37,0,0,1-.047.737l-.049,0c-.734-.1-1.473-.191-2.2-.278A.371.371,0,0,1,552.717,618.123Zm-39.5-.1c.728-.107,1.469-.209,2.2-.3a.37.37,0,0,1,.095.734c-.731.093-1.468.2-2.191.3a.307.307,0,0,1-.053,0,.37.37,0,0,1-.055-.737Zm35.49-.7c.734.07,1.478.145,2.213.223a.37.37,0,0,1-.04.738.367.367,0,0,1-.04,0c-.732-.078-1.473-.154-2.2-.223a.369.369,0,0,1,.069-.735Zm-31.079.13c.735-.083,1.479-.16,2.213-.229a.369.369,0,1,1,.069.735c-.729.071-1.469.148-2.2.229l-.041,0a.37.37,0,0,1-.041-.738Zm26.647-.493c.734.05,1.479.105,2.217.166a.37.37,0,0,1-.029.738h-.031c-.735-.061-1.478-.117-2.207-.167a.369.369,0,1,1,.05-.737Zm-22.22.07c.732-.059,1.478-.113,2.219-.158a.366.366,0,0,1,.392.345.37.37,0,0,1-.345.393c-.737.046-1.479.1-2.207.157h-.03a.37.37,0,0,1-.03-.738Zm17.78-.314c.732.03,1.481.067,2.22.107a.37.37,0,0,1-.019.74l-.021,0c-.738-.04-1.482-.075-2.211-.1a.37.37,0,0,1,.031-.74Zm-13.341.032c.735-.035,1.482-.065,2.223-.089a.37.37,0,1,1,.024.74c-.737.024-1.481.053-2.211.087h-.018a.369.369,0,0,1-.018-.738Zm8.89-.152h0c.734.009,1.482.024,2.223.044a.37.37,0,0,1-.009.74h-.01c-.738-.021-1.484-.036-2.213-.044a.37.37,0,0,1,0-.74Zm-4.444.009c.737-.012,1.485-.019,2.223-.021h0a.37.37,0,1,1,0,.74c-.735,0-1.479.009-2.213.021h-.006a.37.37,0,0,1-.006-.74Z" transform="translate(-416.085 -616.586)" fill="#c4dfaa"/>
    </g>
    <g id="Group_2315" data-name="Group 2315" transform="translate(95.621 60.942)">
      <g id="Group_2307" data-name="Group 2307" transform="translate(16.803 63.775)">
        <path id="Path_634" data-name="Path 634" d="M2058.782,1223.419l.84-.684-11.254-14.708-4.062-.17Z" transform="translate(-2044.306 -1207.857)" fill="#699ff0"/>
      </g>
      <g id="Group_2308" data-name="Group 2308" transform="translate(34.007 63.775)">
        <path id="Path_635" data-name="Path 635" d="M1950.879,1223.419l.7-.684-9.311-14.708-3.36-.17Z" transform="translate(-1938.902 -1207.857)" fill="#699ff0"/>
      </g>
      <g id="Group_2312" data-name="Group 2312" transform="translate(0 32.957)">
        <ellipse id="Ellipse_75" data-name="Ellipse 75" cx="4.935" cy="5.054" rx="4.935" ry="5.054" transform="translate(104.835 2.993)" fill="#699ff0"/>
        <path id="Path_636" data-name="Path 636" d="M1529.211,1494.2h50.184a1,1,0,0,0,.991-1v-4.742a1,1,0,0,0-.991-1h-44.33a1,1,0,0,0-.991,1Z" transform="translate(-1477.114 -1418.019)" fill="#699ff0"/>
        <circle id="Ellipse_76" data-name="Ellipse 76" cx="14.998" cy="14.998" r="14.998" transform="translate(21.66 57.469)" fill="#2b478b"/>
        <circle id="Ellipse_77" data-name="Ellipse 77" cx="7.645" cy="7.645" r="7.645" transform="translate(29.013 64.822)" fill="#85b2ef"/>
        <g id="Group_2309" data-name="Group 2309" transform="translate(98.248 50.261)">
          <path id="Path_637" data-name="Path 637" d="M1261.141,1349.643a22.205,22.205,0,0,1,28.665,17.851,2.894,2.894,0,0,1-2.865,3.318h-.1a1.843,1.843,0,0,1-1.83-1.677,17.245,17.245,0,0,0-34.409,1.677h-4.96A22.242,22.242,0,0,1,1261.141,1349.643Z" transform="translate(-1245.643 -1348.606)" fill="#699ff0"/>
        </g>
        <g id="Group_2310" data-name="Group 2310" transform="translate(90.733 15.83)">
          <path id="Path_638" data-name="Path 638" d="M1367.319,1152.963l7.515,3.026c5.2-10.119,10.518-15.085,15.063-17.533,8.177-4.408,13.868-.675,11.951-4.147l-14.026-29.6a12.886,12.886,0,0,0-11.651-5.307,4.19,4.19,0,0,0-3.573,5.5,51.11,51.11,0,0,1,2.542,16.253C1375.14,1138.6,1367.319,1152.963,1367.319,1152.963Z" transform="translate(-1367.319 -1099.351)" fill="#699ff0"/>
        </g>
        <path id="Path_639" data-name="Path 639" d="M1509.937,1015.584l5.66-2.162c.77,0,2.239.7,2.239-.074L1517,999.523a1.4,1.4,0,0,0-1.4-1.4h-3.648c-.77,0-3.858,1.477-3.64,4.243l-.971,13.934C1507.338,1017.071,1509.167,1015.584,1509.937,1015.584Z" transform="translate(-1411.543 -996.276)" fill="#699ff0"/>
        <path id="Rectangle_469" data-name="Rectangle 469" d="M2.665,0H39a2.665,2.665,0,0,1,2.665,2.665v0A2.665,2.665,0,0,1,39,5.33H2.665A2.665,2.665,0,0,1,0,2.665v0A2.665,2.665,0,0,1,2.665,0Z" transform="translate(0 26.174)" fill="#699ff0"/>
        <circle id="Ellipse_78" data-name="Ellipse 78" cx="14.998" cy="14.998" r="14.998" transform="translate(105.455 57.469)" fill="#2b478b"/>
        <path id="Path_640" data-name="Path 640" d="M1349.49,1461.67a7.6,7.6,0,0,0,.881,3.565c.036.07.074.137.114.2a7.644,7.644,0,1,0,9.587-10.827c-.028-.013-.058-.025-.088-.036a7.646,7.646,0,0,0-10.495,7.093Z" transform="translate(-1236.682 -1389.203)" fill="#afcdfb"/>
        <path id="Path_641" data-name="Path 641" d="M1773.189,1266.9s-5.847,13.024,7.216,27.183h-30.148l4.09-30.995Z" transform="translate(-1707.667 -1224.638)" fill="#699ff0"/>
        <path id="Path_642" data-name="Path 642" d="M1853.293,1319.373a1.99,1.99,0,0,0,1.984,1.984h48.111a1.99,1.99,0,0,0,1.984-1.984l-.638-31.467-16.2-.992C1866.952,1286.914,1853.293,1297.792,1853.293,1319.373Z" transform="translate(-1846.868 -1245.175)" fill="#699ff0"/>
        <path id="Path_643" data-name="Path 643" d="M1461.708,992.516a7.749,7.749,0,0,0,7.762,7.76v-15.52A7.761,7.761,0,0,0,1461.708,992.516Z" transform="translate(-1356.873 -984.756)" fill="#5c96e3"/>
        <g id="Group_2311" data-name="Group 2311" transform="translate(92.049 4.725)">
          <path id="Path_644" data-name="Path 644" d="M1538.694,1023.044c.03,0,.352-.063.382-.069l8.538-2.369a.823.823,0,0,0,.524-.938c-.05-.452-.364-.765-.7-.7l-8.558,1.671c-.339.066-.609.581-.689,1.025C1538.053,1022.41,1538.391,1023.044,1538.694,1023.044Z" transform="translate(-1538.157 -1018.961)" fill="#2b478b"/>
        </g>
        <path id="Path_645" data-name="Path 645" d="M1252.566,1146.8q-.116.717-.223,1.387l.066-.031a17.243,17.243,0,0,1,24.557,13.9,1.843,1.843,0,0,0,1.83,1.677h.1a2.894,2.894,0,0,0,2.865-3.318,22.263,22.263,0,0,0-17.059-18.341c-.03-.008-.059-.015-.089-.021l-14.026-29.6a12.845,12.845,0,0,0-4.942-4.12,58.6,58.6,0,0,1,7.452,34.227q-.158,1.786-.435,3.636C1252.629,1146.4,1252.6,1146.6,1252.566,1146.8Z" transform="translate(-1139.349 -1091.263)" fill="#5c96e3"/>
        <path id="Path_646" data-name="Path 646" d="M1791.815,1236.965v4.674a1.479,1.479,0,0,0,1.475,1.475h30.745a1.481,1.481,0,0,0,1.475-1.475v-4.674a1.48,1.48,0,0,0-1.475-1.475H1793.29A1.479,1.479,0,0,0,1791.815,1236.965Z" transform="translate(-1758.513 -1200.855)" fill="#c4dfaa"/>
        <path id="Path_647" data-name="Path 647" d="M1865.13,1383h46.284s2.824-17.137-7.593-22.924a15.557,15.557,0,0,0-9.094-1.538C1883.905,1359.594,1870.277,1368.765,1865.13,1383Z" transform="translate(-1854.893 -1306.814)" fill="#578ddd"/>
        <path id="Path_648" data-name="Path 648" d="M1461.708,1051.262a7.764,7.764,0,0,0,7.631,6.333v-4.33C1467.059,1053.355,1463.773,1053.107,1461.708,1051.262Z" transform="translate(-1356.742 -1042.075)" fill="#578ddd"/>
        <path id="Path_649" data-name="Path 649" d="M1791.815,1243.114H1814.3a1.481,1.481,0,0,0,1.475-1.475v-4.674a1.48,1.48,0,0,0-1.475-1.475H1798.9A37.693,37.693,0,0,1,1791.815,1243.114Z" transform="translate(-1748.78 -1200.855)" fill="#b1d094"/>
        <path id="Path_650" data-name="Path 650" d="M1986.741,1383.638h19.223c11.6-5.888,10.893-20.093,10.374-24.462C2005.516,1360.236,1991.888,1369.406,1986.741,1383.638Z" transform="translate(-1976.505 -1307.455)" fill="#5c96e3"/>
        <path id="Path_651" data-name="Path 651" d="M1349.49,1469.1a7.644,7.644,0,1,0,9.587-10.827C1358.412,1461.584,1356.273,1467.714,1349.49,1469.1Z" transform="translate(-1235.686 -1392.865)" fill="#85b2ef"/>
        <path id="Path_652" data-name="Path 652" d="M1376.3,1146.8q-.116.717-.223,1.387l.066-.031c2.769-2.561,8.621-4.83,12.292-6.08-.03-.008-.059-.015-.089-.021l-14.026-29.6a12.846,12.846,0,0,0-4.942-4.12,58.6,58.6,0,0,1,7.452,34.227q-.159,1.786-.435,3.636C1376.359,1146.4,1376.329,1146.6,1376.3,1146.8Z" transform="translate(-1263.079 -1091.263)" fill="#578ddd"/>
      </g>
      <g id="Group_2313" data-name="Group 2313" transform="translate(2.629 39.373)">
        <rect id="Rectangle_470" data-name="Rectangle 470" width="23.961" height="19.757" transform="translate(11.98 0)" fill="#9cbe7c"/>
        <rect id="Rectangle_471" data-name="Rectangle 471" width="23.961" height="19.757" transform="translate(0 0.001)" fill="#c4dfaa"/>
        <path id="Path_653" data-name="Path 653" d="M2001.5,1126.527h-3.8l.334-1.068-.334-.763h3.8Z" transform="translate(-1965.576 -1111.78)" fill="#90c8ac"/>
        <path id="Path_654" data-name="Path 654" d="M2084.336,1044.3v6.659h23.96V1031.2h-4.244Z" transform="translate(-2084.336 -1031.203)" fill="#b1d094"/>
        <path id="Path_655" data-name="Path 655" d="M2230.309,1051.854h3.8l-.334-1.068.334-.763h-3.8Z" transform="translate(-2230.309 -1047.422)" fill="#90c8ac" opacity="0.4"/>
        <path id="Path_656" data-name="Path 656" d="M2230.309,1139.788h3.8l-.334-1.068.334-.763h-3.8Z" transform="translate(-2230.309 -1123.209)" fill="#90c8ac"/>
      </g>
      <g id="Group_2314" data-name="Group 2314" transform="translate(46.679)">
        <path id="Path_657" data-name="Path 657" d="M1833.558,840.653c-4.143,1.682-11.715-1.914-11.715-1.914a10.623,10.623,0,0,0,2.993-6.439c.025-.212.043-.429.056-.651l2.141-.761,3.669,2.5a28.451,28.451,0,0,1-.042,3.379q-.033.563-.09,1.209A7.438,7.438,0,0,1,1833.558,840.653Z" transform="translate(-1817.388 -819.185)" fill="#ffb27d"/>
        <path id="Path_658" data-name="Path 658" d="M1848.175,833.385a28.451,28.451,0,0,1-.042,3.379,8.768,8.768,0,0,1-5.824-4.465c.025-.212.043-.429.056-.651l2.141-.761Z" transform="translate(-1834.861 -819.185)" fill="#ed975d"/>
        <path id="Path_659" data-name="Path 659" d="M1824.422,785.971s-7.134-.233-6.921-4.673-.564-7.461,4-7.5,5.367,1.7,5.657,3.2S1826.284,785.917,1824.422,785.971Z" transform="translate(-1810.431 -769.98)" fill="#ffb27d"/>
        <path id="Path_660" data-name="Path 660" d="M1820.609,765.33a3.332,3.332,0,0,1,.525-2.451s-.519-1.448.038-1.773.848.913,1.092.68a6.08,6.08,0,0,0,1.656-2.773c.332-1.445,5.279-.409,5.863-.235s-3.282-7.04-7.457-5.331-4.489,3.852-4.007,5.589S1818.758,764.973,1820.609,765.33Z" transform="translate(-1813.162 -752.216)" fill="#2b478b"/>
        <path id="Path_661" data-name="Path 661" d="M1626.733,1134.138s.495,8.715,2.479,11.2,40.014,1.519,40.014,1.519.166-5.588-1.323-7.025-8.433-5.564-30.606-7.9Z" transform="translate(-1626.11 -1078.639)" fill="#6bb7bf"/>
        <path id="Path_662" data-name="Path 662" d="M1777.03,889.592c.62,7.485-.2,18.871.508,20.844.607,1.7,7.523.689,10.283.122,1.022-.212,2.26-.511,3.538-.866,3.565-.99,7.45-2.406,7.867-3.458a.711.711,0,0,0,.038-.121.842.842,0,0,0-.006-.44c-.1-.4-.423-.817-.609-1.546a4.549,4.549,0,0,1-.129-.9c-.064-1.356-.061-2.932-.108-4.628,0-.155-.01-.312-.015-.47,0-.212-.007-.442-.031-.651l0-.078c0-.04,0-.079,0-.119-.059-2.092-.182-4.289-.323-6.47-.045-.68-.093-1.356-.145-2.024-.017-.237-.036-.471-.055-.7-.036-.436-.073-.87-.112-1.3a48.723,48.723,0,0,0-1.285-8.221,13.186,13.186,0,0,0-4.724-6.546l-1.316-1.013a8.41,8.41,0,0,1-4.775-.571c-1.7-.726-2.285-1.245-2.581-1.048C1779.12,872.109,1776.3,880.44,1777.03,889.592Z" transform="translate(-1776.914 -852.334)" fill="#c4dfaa"/>
        <path id="Path_663" data-name="Path 663" d="M1629.36,1436.665s.336,5.425,1.386,5.5c.14.01,5.323.01,5.323.01l6.617-.038a2.147,2.147,0,0,0-1.978-1.932c-1.934-.337-5.172-1.7-6.343-4.253C1633.132,1433.266,1629.36,1436.665,1629.36,1436.665Z" transform="translate(-1599.927 -1339.779)" fill="#1c4575"/>
        <path id="Path_664" data-name="Path 664" d="M1626.79,1244.889a7.293,7.293,0,0,0,3.886,1.11,10.486,10.486,0,0,0,1.826-.073,8.674,8.674,0,0,0,2.335-.6l7.021-29.465s-7.606-6.645-11.575-2.513a6.988,6.988,0,0,0-1.336,2.692C1626.429,1224.166,1626.79,1244.889,1626.79,1244.889Z" transform="translate(-1598.74 -1147.65)" fill="#6bb7bf"/>
        <path id="Path_665" data-name="Path 665" d="M1781.556,974.577s4.924,18.028,10.547,20.225a4.532,4.532,0,0,1-.129-.9c-.065-1.356-.061-2.932-.108-4.628,0-.155-.01-.312-.015-.47,0-.212-.007-.441-.031-.651l0-.078c0-.04,0-.079,0-.119-.059-2.092-.182-4.289-.322-6.47-.045-.68-.093-1.356-.146-2.024C1788.873,976.475,1785.513,974.326,1781.556,974.577Z" transform="translate(-1770.368 -943.009)" fill="#b1d094"/>
        <path id="Path_666" data-name="Path 666" d="M1575.073,1016.089a14.344,14.344,0,0,0,2.7,0c.551-.165,3.142-1.709,4.079-1.378s3.307,2.756,2.7,3.858a3.113,3.113,0,0,1-2.122-1.02c-1.02-1.047-2.122-.331-2.012-.193s1.709.772,1.433,1.047a4.684,4.684,0,0,1-2.866-.11c-.5-.331-4.189.083-4.189.083Z" transform="translate(-1534.349 -977.576)" fill="#ffb27d"/>
        <path id="Path_667" data-name="Path 667" d="M1625.026,905.5s13.334,11.367,16.844,12.463,15.911,3.506,15.911,3.506.342,2.936-.821,4.038c0,0-15.934-.924-17.918-1.344s-16.768-8.081-17.974-8.66S1620.049,904.563,1625.026,905.5Z" transform="translate(-1613.838 -883.44)" fill="#9cbe7c"/>
        <path id="Path_668" data-name="Path 668" d="M1694.516,1270.13a7.292,7.292,0,0,0,3.886,1.11,10.5,10.5,0,0,0,1.825-.073c-4-5.065-3.555-29.883-3.555-29.883C1694.156,1249.408,1694.516,1270.13,1694.516,1270.13Z" transform="translate(-1666.466 -1172.891)" fill="#5aa9ad"/>
        <path id="Path_669" data-name="Path 669" d="M1781.9,753.284v.068a.47.47,0,0,0,.208.415.268.268,0,0,0,.131.036h16.905c.187,0,.339-.2.339-.451v-.068c0-.248-.152-.451-.339-.451l-3.775-.485a7.019,7.019,0,0,0-4.677-5.881h0a6.153,6.153,0,0,0-1.891-.3,6.849,6.849,0,0,0-6.607,6.518l-.01.127-.071.053A.472.472,0,0,0,1781.9,753.284Z" transform="translate(-1777.791 -746.171)" fill="#c4dfaa"/>
        <path id="Path_670" data-name="Path 670" d="M1850.987,752.689c-1.26-6.667,2.935-6.239,3.075-6.222a6.151,6.151,0,0,0-1.891-.3,6.849,6.849,0,0,0-6.607,6.518Z" transform="translate(-1841.169 -746.171)" fill="#b1d094"/>
      </g>
    </g>
    <path id="Path_671" data-name="Path 671" d="M2048.433,1559.28s-13.876-3.5-17.792-7.726-7.3.564-4.761,3.242S2048.433,1559.28,2048.433,1559.28Z" transform="translate(-1918.027 -1377.917)" fill="#edf4ff"/>
    <path id="Path_672" data-name="Path 672" d="M2277.7,1539.006h19.449a.874.874,0,0,0,.872-.871h0a.874.874,0,0,0-.872-.871H2277.7a.874.874,0,0,0-.871.871h0A.874.874,0,0,0,2277.7,1539.006Z" transform="translate(-2202.395 -1367.044)" fill="#edf4ff"/>
    <path id="Path_673" data-name="Path 673" d="M2277.3,1515.814h10.577a.475.475,0,0,0,.474-.474h0a.475.475,0,0,0-.474-.474H2277.3a.475.475,0,0,0-.474.474h0A.475.475,0,0,0,2277.3,1515.814Z" transform="translate(-2192.729 -1347.74)" fill="#edf4ff"/>
    <path id="Path_674" data-name="Path 674" d="M638.569,1093.412c6.191,11.157,15.709,22.843,15.709,22.843s20.956-25.722,20.956-37.293a20.935,20.935,0,0,0-7.747-16.271,52.19,52.19,0,0,1-4.155,12.315,9.78,9.78,0,0,1-9.054,13.524,9.063,9.063,0,0,1-2.135-.248A31.835,31.835,0,0,1,638.569,1093.412Z" transform="translate(-353.311 -958.026)" fill="#b1d094"/>
  </g>
</svg>
