<svg xmlns="http://www.w3.org/2000/svg" width="18.006" height="18.006" viewBox="0 0 18.006 18.006">
  <g id="settings-sliders" transform="translate(0 0)">
    <path id="Path_191" data-name="Path 191" d="M.75,3.564H2.8a2.8,2.8,0,0,0,5.4,0h9.055a.75.75,0,0,0,0-1.5H8.2a2.8,2.8,0,0,0-5.4,0H.75a.75.75,0,1,0,0,1.5ZM5.5,1.5A1.313,1.313,0,1,1,4.189,2.813,1.313,1.313,0,0,1,5.5,1.5Z" fill="#707070"/>
    <path id="Path_192" data-name="Path 192" d="M17.256,10.313H15.2a2.8,2.8,0,0,0-5.4,0H.75a.75.75,0,0,0,0,1.5H9.806a2.8,2.8,0,0,0,5.4,0h2.053a.75.75,0,0,0,0-1.5ZM12.5,12.376a1.313,1.313,0,1,1,1.313-1.313A1.313,1.313,0,0,1,12.5,12.376Z" transform="translate(0 -2.06)" fill="#707070"/>
    <path id="Path_193" data-name="Path 193" d="M17.256,18.563H8.2a2.8,2.8,0,0,0-5.4,0H.75a.75.75,0,0,0,0,1.5H2.8a2.8,2.8,0,0,0,5.4,0h9.055a.75.75,0,0,0,0-1.5ZM5.5,20.626a1.313,1.313,0,1,1,1.313-1.313A1.313,1.313,0,0,1,5.5,20.626Z" transform="translate(0 -4.121)" fill="#707070"/>
  </g>
</svg>
