<svg id="_2953610801548141934" data-name="2953610801548141934" xmlns="http://www.w3.org/2000/svg" width="24.006" height="24.496" viewBox="0 0 24.006 24.496">
  <path id="Path_88" data-name="Path 88" d="M142.308,109.265a10.5,10.5,0,0,0-.259-2.5h-11.5v4.545h6.75a5.985,5.985,0,0,1-2.5,3.974l-.023.152,3.636,2.817.252.025a11.975,11.975,0,0,0,3.647-9.009" transform="translate(-118.302 -96.745)" fill="#4285f4"/>
  <path id="Path_89" data-name="Path 89" d="M24.867,166.2a11.674,11.674,0,0,0,8.111-2.967l-3.865-2.994a7.249,7.249,0,0,1-4.246,1.225,7.374,7.374,0,0,1-6.968-5.09l-.144.012-3.781,2.926-.049.137a12.239,12.239,0,0,0,10.942,6.75" transform="translate(-12.619 -141.699)" fill="#34a853"/>
  <path id="Path_90" data-name="Path 90" d="M5.28,79.292a7.54,7.54,0,0,1-.408-2.422,7.924,7.924,0,0,1,.395-2.422l-.007-.162L1.432,71.312l-.125.06a12.222,12.222,0,0,0,0,11L5.28,79.292" transform="translate(0 -64.622)" fill="#fbbc05"/>
  <path id="Path_91" data-name="Path 91" d="M24.867,4.736A6.788,6.788,0,0,1,29.6,6.56l3.457-3.375A11.768,11.768,0,0,0,24.867,0,12.239,12.239,0,0,0,13.925,6.75l3.96,3.076a7.4,7.4,0,0,1,6.982-5.09" transform="translate(-12.619)" fill="#eb4335"/>
</svg>
