<svg xmlns="http://www.w3.org/2000/svg" width="48.859" height="48.859" viewBox="0 0 48.859 48.859">
  <path id="life-ring" d="M43.068,40.189a24.336,24.336,0,0,0,0-31.518L44.818,6.92a2.036,2.036,0,0,0-2.881-2.879L40.187,5.792a24.336,24.336,0,0,0-31.518,0L6.918,4.041A2.036,2.036,0,1,0,4.041,6.922L5.792,8.673a24.336,24.336,0,0,0,0,31.518L4.041,41.942a2.036,2.036,0,1,0,2.881,2.877l1.751-1.751a24.336,24.336,0,0,0,31.519,0l1.751,1.751a2.036,2.036,0,1,0,2.877-2.881Zm1.72-15.759A20.254,20.254,0,0,1,40.183,37.3l-7.27-7.27a10.11,10.11,0,0,0,0-11.209l7.27-7.27A20.254,20.254,0,0,1,44.788,24.43Zm-26.466,0a6.107,6.107,0,1,1,6.107,6.107,6.107,6.107,0,0,1-6.107-6.107ZM24.43,4.072A20.254,20.254,0,0,1,37.3,8.677l-7.27,7.27a10.11,10.11,0,0,0-11.209,0l-7.27-7.27A20.254,20.254,0,0,1,24.43,4.072ZM4.072,24.43A20.254,20.254,0,0,1,8.677,11.555l7.27,7.27a10.11,10.11,0,0,0,0,11.209L8.677,37.3A20.254,20.254,0,0,1,4.072,24.43ZM24.43,44.788a20.254,20.254,0,0,1-12.874-4.605l7.27-7.27a10.11,10.11,0,0,0,11.209,0l7.27,7.27A20.254,20.254,0,0,1,24.43,44.788Z" transform="translate(0 0)" fill="#fff"/>
</svg>
