<svg xmlns="http://www.w3.org/2000/svg" width="19.165" height="19.165" viewBox="0 0 19.165 19.165">
  <g id="Group_77" data-name="Group 77" transform="translate(-0.004 -0.033)">
    <path id="Path_197" data-name="Path 197" d="M15.176,19.2H10.451C4.861,19.2.38,15.37.027,10.3A9.585,9.585,0,0,1,10.254.055a9.749,9.749,0,0,1,8.915,9.832v5.318A4,4,0,0,1,15.176,19.2ZM9.6,1.63a7.984,7.984,0,0,0-7.977,8.556c.3,4.3,4.011,7.414,8.83,7.414h4.725a2.4,2.4,0,0,0,2.4-2.4V9.887a8.148,8.148,0,0,0-7.426-8.238c-.183-.013-.366-.018-.549-.018Z" transform="translate(0 0)" fill="#cec9c9"/>
    <path id="Path_198" data-name="Path 198" d="M130.065,142.253H128.8a.8.8,0,0,1-.8-.8v-1.266a3.171,3.171,0,0,1,.936-2.258l4.557-4.557a2.4,2.4,0,1,1,3.387,3.388l-4.557,4.557a3.175,3.175,0,0,1-2.258.936Z" transform="translate(-123.205 -127.674)" fill="#707070"/>
    <path id="Path_199" data-name="Path 199" d="M170.667,181.7h.468a1.586,1.586,0,0,0,1.129-.468l4.557-4.557a.8.8,0,0,0-1.129-1.129l-4.557,4.557a1.611,1.611,0,0,0-.468,1.129v.468Z" transform="translate(-164.274 -168.715)" fill="#fff"/>
  </g>
</svg>
