<svg xmlns="http://www.w3.org/2000/svg" width="37.494" height="50.876" viewBox="0 0 37.494 50.876">
  <g id="Group_34" data-name="Group 34" transform="translate(0 0)">
    <path id="Path_54" data-name="Path 54" d="M146.668,417.966a15.755,15.755,0,0,1,4.926,1.562,9.293,9.293,0,0,1,5.235,8.235,11.917,11.917,0,0,1-3.418,9.61,13.9,13.9,0,0,1-7.865,3.817,26.986,26.986,0,0,1-3.645.074,11.915,11.915,0,0,1-1.5,0,1.288,1.288,0,0,0-1.323.694c-1.259,1.808-2.569,3.581-3.86,5.368-.321.445-.322.445-.664-.011-1.387-1.848-2.781-3.691-4.153-5.549a.8.8,0,0,0-.754-.362c-2.615.045-5.231.073-7.846.1a2.316,2.316,0,0,1-2.348-1.661,3.256,3.256,0,0,1-.09-.949q0-18.341,0-36.682c0-1,0-2.008,0-3.011a2.275,2.275,0,0,1,2.434-2.418c5.474.043,10.95.036,16.423.159a11.692,11.692,0,0,1,9.969,5.311,10.457,10.457,0,0,1-1.479,13.246c-.078.076-.127.218-.282.184a1.993,1.993,0,0,1-.081-.212,11.808,11.808,0,0,0-13.394-8.72,11.946,11.946,0,0,0-9.835,10.5,14.987,14.987,0,0,0,1.179,6.759c.083.219.224.247.416.267,2.253.228,4.5.485,6.76.686a14.246,14.246,0,0,0,3.82-.015c.207-.037.462-.06.527-.294.075-.271-.176-.4-.355-.528a10.738,10.738,0,0,0-2.027-1.029,6.814,6.814,0,0,1-2.2-1.431,3.042,3.042,0,0,1-.209-4.315,6.465,6.465,0,0,1,2.361-1.748c.259-.121.515-.25.773-.375a1.436,1.436,0,0,0,.213-.056c.13-.033.186-.056.363-.112a19.32,19.32,0,0,1,3.753-.571l1.006.008a24.484,24.484,0,0,1,6.6,1.161c.112.036.226.1.344.013.056.771.261,1.526.243,2.305-.9-.134-1.8-.3-2.7-.4a23.77,23.77,0,0,0-7.044.037,6.345,6.345,0,0,0-2.632.963,1.364,1.364,0,0,0-.393,2.027,4.48,4.48,0,0,0,.941,1.048,16.856,16.856,0,0,0,3.222,2.053,11.879,11.879,0,0,1,1.976,1.217c1.228.988,1.106,1.8-.363,2.362a14,14,0,0,1-3.424.728,78.856,78.856,0,0,1-9.384.4c-.522,0-.524,0-.289.453q4.079,7.842,8.162,15.682c.036.07.044.175.176.2.068-.111.142-.223.208-.339,2.306-4.036,4.551-8.106,6.642-12.259a62.09,62.09,0,0,0,4.39-10.146A10.353,10.353,0,0,0,146.668,417.966Z" transform="translate(-119.358 -396.785)" fill="#90c8ac"/>
    <path id="Path_55" data-name="Path 55" d="M166.615,475.893a10.353,10.353,0,0,1-.5,4.04,62.091,62.091,0,0,1-4.39,10.146c-2.091,4.152-4.336,8.223-6.642,12.259-.066.116-.14.228-.208.339-.132-.027-.14-.133-.176-.2q-4.084-7.84-8.162-15.682c-.235-.451-.233-.454.289-.453a78.856,78.856,0,0,0,9.384-.4,14,14,0,0,0,3.424-.728c1.469-.565,1.591-1.375.363-2.362a11.873,11.873,0,0,0-1.976-1.217,16.855,16.855,0,0,1-3.222-2.053,4.48,4.48,0,0,1-.941-1.048,1.364,1.364,0,0,1,.393-2.027,6.345,6.345,0,0,1,2.632-.963,23.77,23.77,0,0,1,7.044-.037c.9.1,1.8.262,2.7.4Z" transform="translate(-139.306 -454.711)" fill="#fefefe"/>
    <path id="Path_56" data-name="Path 56" d="M144.611,442.9c-.257.125-.513.254-.773.375a6.465,6.465,0,0,0-2.361,1.748,3.043,3.043,0,0,0,.209,4.315,6.814,6.814,0,0,0,2.2,1.431,10.738,10.738,0,0,1,2.027,1.029c.179.128.43.257.355.528-.065.234-.32.256-.527.294a14.249,14.249,0,0,1-3.82.015c-2.256-.2-4.507-.457-6.76-.686-.192-.02-.333-.048-.416-.267a14.987,14.987,0,0,1-1.179-6.759,11.946,11.946,0,0,1,9.835-10.5,11.808,11.808,0,0,1,13.394,8.72,1.99,1.99,0,0,0,.081.212l.01-.012c-.118.088-.232.023-.344-.013a24.486,24.486,0,0,0-6.6-1.161,3.666,3.666,0,0,0,.351-.515,3.616,3.616,0,0,0-.227-3.689,3.561,3.561,0,0,0-3.338-1.676,3.669,3.669,0,0,0-3.309,2.585A3.739,3.739,0,0,0,144.611,442.9Z" transform="translate(-129.813 -424.46)" fill="#fefefe"/>
    <path id="Path_57" data-name="Path 57" d="M172.014,448.563a3.739,3.739,0,0,1-1.188-4.026,3.67,3.67,0,0,1,3.309-2.585,3.561,3.561,0,0,1,3.338,1.676,3.616,3.616,0,0,1,.227,3.689,3.663,3.663,0,0,1-.351.515l-1.006-.008a.1.1,0,0,1,.016-.063c.355.039.675.01.765-.425a4.461,4.461,0,0,0,.114-.668,2.876,2.876,0,1,0-5.687.424,7.816,7.816,0,0,0,.675,1.414A1.027,1.027,0,0,1,172.014,448.563Z" transform="translate(-157.216 -430.119)" fill="#f38016"/>
    <path id="Path_58" data-name="Path 58" d="M174.6,453.264a7.819,7.819,0,0,1-.675-1.414,2.876,2.876,0,1,1,5.687-.424,4.461,4.461,0,0,1-.114.668c-.09.434-.426.527-.781.488-.01-.135-.009-.334-.012-.469a1.983,1.983,0,0,0-1.657-1.877,1.959,1.959,0,0,0-2.2,1.454,2.767,2.767,0,0,0,.117,1.464C174.816,453.2,174.731,453.224,174.6,453.264Z" transform="translate(-159.589 -434.876)" fill="#fb9c27"/>
    <path id="Path_59" data-name="Path 59" d="M177.57,458.307a2.767,2.767,0,0,1-.117-1.464,1.959,1.959,0,0,1,2.2-1.454,1.983,1.983,0,0,1,1.657,1.877c0,.135.018.271.028.406a.1.1,0,0,0-.016.063A19.316,19.316,0,0,0,177.57,458.307Z" transform="translate(-162.195 -440.03)" fill="#feb466"/>
  </g>
</svg>
