<svg xmlns="http://www.w3.org/2000/svg" width="18" height="24" viewBox="0 0 18 24">
  <g id="Group_66" data-name="Group 66" transform="translate(-190 -881)">
    <path id="form_1_" data-name="form (1)" d="M16,.3a4.968,4.968,0,0,1,1.879,1.164l1.656,1.658A4.954,4.954,0,0,1,20.7,5H16ZM14,12H10a1,1,0,0,0,0,2h4a1,1,0,0,0,0-2Zm2-5a2,2,0,0,1-2-2V0H8A5.006,5.006,0,0,0,3,5V19a5.006,5.006,0,0,0,5,5h8a5.006,5.006,0,0,0,5-5V7Zm0,13H8a1,1,0,0,1,0-2h8a1,1,0,0,1,0,2Zm-2-4H10a3,3,0,0,1,0-6h4a3,3,0,0,1,0,6Z" transform="translate(187 881)" fill="#c4dfaa"/>
    <g id="Path_598" data-name="Path 598" transform="translate(196 893)" fill="#73a9ad">
      <path d="M 5 1.5 L 1 1.5 C 0.7243000268936157 1.5 0.5 1.275699973106384 0.5 1 C 0.5 0.7243000268936157 0.7243000268936157 0.5 1 0.5 L 5 0.5 C 5.275700092315674 0.5 5.5 0.7243000268936157 5.5 1 C 5.5 1.275699973106384 5.275700092315674 1.5 5 1.5 Z" stroke="none"/>
      <path d="M 1 0 L 5 0 C 5.552279949188232 0 6 0.4477200508117676 6 1 C 6 1.552279949188232 5.552279949188232 2 5 2 L 1 2 C 0.4477200508117676 2 0 1.552279949188232 0 1 C 0 0.4477200508117676 0.4477200508117676 0 1 0 Z" stroke="none" fill="#73a9ad"/>
    </g>
    <path id="Rectangle_99" data-name="Rectangle 99" d="M0,0H0A5,5,0,0,1,5,5V5A0,0,0,0,1,5,5H0A0,0,0,0,1,0,5V0A0,0,0,0,1,0,0Z" transform="translate(203 881)" fill="#73a9ad"/>
  </g>
</svg>
