<svg xmlns="http://www.w3.org/2000/svg" width="18" height="24" viewBox="0 0 18 24">
  <g id="Group_66" data-name="Group 66" transform="translate(-190 -881)">
    <path id="form_1_" data-name="form (1)" d="M16,.3a4.968,4.968,0,0,1,1.879,1.164l1.656,1.658A4.954,4.954,0,0,1,20.7,5H16ZM14,12H10a1,1,0,0,0,0,2h4a1,1,0,0,0,0-2Zm2-5a2,2,0,0,1-2-2V0H8A5.006,5.006,0,0,0,3,5V19a5.006,5.006,0,0,0,5,5h8a5.006,5.006,0,0,0,5-5V7Zm0,13H8a1,1,0,0,1,0-2h8a1,1,0,0,1,0,2Zm-2-4H10a3,3,0,0,1,0-6h4a3,3,0,0,1,0,6Z" transform="translate(187 881)" fill="#cec9c9"/>
    <g id="Rectangle_98" data-name="Rectangle 98" transform="translate(196 893)" fill="#cec9c9" stroke="#707070" stroke-width="1">
      <rect width="6" height="2" rx="1" stroke="none"/>
      <rect x="0.5" y="0.5" width="5" height="1" rx="0.5" fill="none"/>
    </g>
    <path id="Rectangle_99" data-name="Rectangle 99" d="M0,0H0A5,5,0,0,1,5,5V5A0,0,0,0,1,5,5H0A0,0,0,0,1,0,5V0A0,0,0,0,1,0,0Z" transform="translate(203 881)" fill="#707070"/>
  </g>
</svg>
