<svg xmlns="http://www.w3.org/2000/svg" width="20.11" height="24.132" viewBox="0 0 20.11 24.132">
  <g id="Group_72" data-name="Group 72" transform="translate(-42.667)">
    <path id="Path_186" data-name="Path 186" d="M53.727,22.121H47.694A3.016,3.016,0,0,1,44.678,19.1V5.027a3.016,3.016,0,0,1,3.016-3.016H59.76a1.006,1.006,0,0,1,1.006,1.005V11.06a1.005,1.005,0,0,0,2.011,0V3.016A3.016,3.016,0,0,0,59.76,0H47.694a5.033,5.033,0,0,0-5.027,5.027V19.1a5.033,5.033,0,0,0,5.027,5.027h6.033a1.006,1.006,0,1,0,0-2.011Z" transform="translate(0 0)" fill="#cec9c9"/>
    <circle id="Ellipse_11" data-name="Ellipse 11" cx="2.514" cy="2.514" r="2.514" transform="translate(55.236 15.538)" fill="#90c8ac"/>
    <path id="Path_187" data-name="Path 187" d="M158.382,102.667a1.005,1.005,0,1,1,0,2.011h-8.044a1.005,1.005,0,1,1,0-2.011Z" transform="translate(-101.639 -97.828)" fill="#707070"/>
    <path id="Path_188" data-name="Path 188" d="M158.382,181.667a1.005,1.005,0,1,1,0,2.011h-8.044a1.005,1.005,0,1,1,0-2.011Z" transform="translate(-101.639 -173.105)" fill="#707070"/>
    <path id="Path_189" data-name="Path 189" d="M158.382,260.667a1.005,1.005,0,1,1,0,2.011h-8.044a1.005,1.005,0,1,1,0-2.011Z" transform="translate(-101.639 -248.381)" fill="#707070"/>
  </g>
</svg>
