<svg xmlns="http://www.w3.org/2000/svg" width="22.424" height="24" viewBox="0 0 22.424 24">
  <g id="Group_70" data-name="Group 70" transform="translate(-1205.535 -384.447)">
    <path id="Path_170" data-name="Path 170" d="M1269.075,384.447a6.421,6.421,0,1,1-6.425,6.419A6.423,6.423,0,0,1,1269.075,384.447Zm-.007,1.676a4.745,4.745,0,1,0,4.76,4.746A4.748,4.748,0,0,0,1269.068,386.123Z" transform="translate(-53.118)" fill="#707070"/>
    <path id="Path_171" data-name="Path 171" d="M1402.533,597.248a2.526,2.526,0,0,1-.811,1.819c-.646.661-1.3,1.31-1.957,1.963-.61.611-1.237,1.205-1.826,1.836a2.637,2.637,0,0,1-1.732.864c-.381.038-.759.105-1.139.155a1.561,1.561,0,0,1-1.8-1.893c.065-.466.128-.932.2-1.4a2.08,2.08,0,0,1,.594-1.168q2-2,4-3.992a2.412,2.412,0,0,1,1.985-.814,1.841,1.841,0,0,1,.721.214,3.245,3.245,0,0,1,1.725,2.088A2.4,2.4,0,0,1,1402.533,597.248ZM1395,602.2c.478-.07.909-.129,1.339-.2a.46.46,0,0,0,.24-.151q1.172-1.175,2.349-2.345c.108-.106.087-.15-.027-.229a3.987,3.987,0,0,1-1.028-1.031c-.094-.138-.147-.116-.249-.013q-1.159,1.17-2.328,2.33a.584.584,0,0,0-.176.341q-.084.581-.167,1.163C1394.939,602.141,1394.922,602.219,1395,602.2Zm4.776-5.913a1.55,1.55,0,0,0-.742.549c-.051.052,0,.113.031.167a2.706,2.706,0,0,0,1.07,1.079c.083.047.146.07.228-.013.6-.611.693-.827.046-1.459a1.894,1.894,0,0,0-.2-.168A.663.663,0,0,0,1399.772,596.289Z" transform="translate(-174.575 -195.455)" fill="#90c8ac"/>
    <path id="Path_172" data-name="Path 172" d="M1215.969,591.863a12.7,12.7,0,0,1,3.453.485.854.854,0,0,1,.654,1.076.827.827,0,0,1-1.085.542,10.811,10.811,0,0,0-3.46-.42A9.364,9.364,0,0,0,1209,596.3a5.955,5.955,0,0,0-1.794,4.169.833.833,0,0,1-.865.88.8.8,0,0,1-.809-.893,7.494,7.494,0,0,1,2.15-5.209,10.737,10.737,0,0,1,6-3.169A11.686,11.686,0,0,1,1215.969,591.863Z" transform="translate(0 -192.901)" fill="#cec9c9"/>
  </g>
</svg>
