<svg xmlns="http://www.w3.org/2000/svg" width="23.556" height="23.556" viewBox="0 0 23.556 23.556">
  <g id="sign-in-alt" transform="translate(0 0)">
    <path id="Path_52" data-name="Path 52" d="M18.55,0H5.006A4.961,4.961,0,0,0,0,4.907V7.852a.981.981,0,1,0,1.963,0V4.907A3,3,0,0,1,5.006,1.963H18.55a3,3,0,0,1,3.043,2.944V18.648a3,3,0,0,1-3.043,2.944H5.006a3,3,0,0,1-3.043-2.944V15.7A.981.981,0,0,0,0,15.7v2.944a4.961,4.961,0,0,0,5.006,4.907H18.55a4.961,4.961,0,0,0,5.006-4.907V4.907A4.961,4.961,0,0,0,18.55,0Z" transform="translate(0 0)" fill="#cec9c9"/>
    <path id="Path_53" data-name="Path 53" d="M3,11.87a.981.981,0,0,0,.981.981h0l12.944-.029-4.243,4.243a.981.981,0,1,0,1.388,1.388l4.5-4.5a2.944,2.944,0,0,0,0-4.164l-4.5-4.5a.981.981,0,1,0-1.388,1.388l4.183,4.184-12.886.029A.981.981,0,0,0,3,11.87Z" transform="translate(-0.056 -0.093)" fill="#90c8ac"/>
  </g>
</svg>
