<svg xmlns="http://www.w3.org/2000/svg" width="91.584" height="15.139" viewBox="0 0 91.584 15.139">
  <g id="Group_73" data-name="Group 73" transform="translate(-127 -543.43)">
    <path id="star-4" d="M.865,8.122,3.178,9.812,2.3,12.532a2.1,2.1,0,0,0,3.238,2.335L7.8,13.2l2.262,1.663A2.1,2.1,0,0,0,13.3,12.532l-.878-2.72,2.313-1.689A2.1,2.1,0,0,0,13.5,4.334H10.658L9.8,1.647a2.1,2.1,0,0,0-3.993,0L4.94,4.334H2.1A2.1,2.1,0,0,0,.868,8.122Z" transform="translate(126.992 543.287)" fill="#faa144"/>
    <path id="star-4-2" data-name="star-4" d="M.865,8.122,3.178,9.812,2.3,12.532a2.1,2.1,0,0,0,3.238,2.335L7.8,13.2l2.262,1.663A2.1,2.1,0,0,0,13.3,12.532l-.878-2.72,2.313-1.689A2.1,2.1,0,0,0,13.5,4.334H10.658L9.8,1.647a2.1,2.1,0,0,0-3.993,0L4.94,4.334H2.1A2.1,2.1,0,0,0,.868,8.122Z" transform="translate(145.992 543.24)" fill="#faa144"/>
    <path id="star-4-3" data-name="star-4" d="M.865,8.122,3.178,9.812,2.3,12.532a2.1,2.1,0,0,0,3.238,2.335L7.8,13.2l2.262,1.663A2.1,2.1,0,0,0,13.3,12.532l-.878-2.72,2.313-1.689A2.1,2.1,0,0,0,13.5,4.334H10.658L9.8,1.647a2.1,2.1,0,0,0-3.993,0L4.94,4.334H2.1A2.1,2.1,0,0,0,.868,8.122Z" transform="translate(164.992 543.24)" fill="#faa144"/>
    <path id="star-4-4" data-name="star-4" d="M.865,8.122,3.178,9.812,2.3,12.532a2.1,2.1,0,0,0,3.238,2.335L7.8,13.2l2.262,1.663A2.1,2.1,0,0,0,13.3,12.532l-.878-2.72,2.313-1.689A2.1,2.1,0,0,0,13.5,4.334H10.658L9.8,1.647a2.1,2.1,0,0,0-3.993,0L4.94,4.334H2.1A2.1,2.1,0,0,0,.868,8.122Z" transform="translate(183.992 543.287)" fill="#faa144"/>
    <path id="star-4-5" data-name="star-4" d="M.865,8.122,3.178,9.812,2.3,12.532a2.1,2.1,0,0,0,3.238,2.335L7.8,13.2l2.262,1.663A2.1,2.1,0,0,0,13.3,12.532l-.878-2.72,2.313-1.689A2.1,2.1,0,0,0,13.5,4.334H10.658L9.8,1.647a2.1,2.1,0,0,0-3.993,0L4.94,4.334H2.1A2.1,2.1,0,0,0,.868,8.122Z" transform="translate(202.992 543.24)" fill="#faa144"/>
  </g>
</svg>
