<svg xmlns="http://www.w3.org/2000/svg" width="22.424" height="21.073" viewBox="0 0 22.424 21.073">
  <g id="Group_71" data-name="Group 71" transform="translate(-1137.051 -395.595)">
    <path id="Path_173" data-name="Path 173" d="M1147.735,416.66q-4.225,0-8.451,0a2.108,2.108,0,0,1-2.115-1.432,2.363,2.363,0,0,1-.117-.774q0-5.944,0-11.889a2.108,2.108,0,0,1,2.224-2.213c.263,0,.526-.011.788,0a.253.253,0,0,0,.293-.2c.462-1.174.934-2.344,1.406-3.515a1.544,1.544,0,0,1,2.16-.9q5.429,2.258,10.857,4.521a1.1,1.1,0,0,0,.414.085,11.941,11.941,0,0,1,1.478.031,2.053,2.053,0,0,1,1.764,1.957c.021.8.01,1.591.006,2.387,0,.148.024.22.194.251a1.017,1.017,0,0,1,.832,1.024q.014,2.495,0,4.989a1.024,1.024,0,0,1-.845,1.038c-.167.03-.181.1-.18.234,0,.7-.027,1.4.008,2.1a2.163,2.163,0,0,1-2.29,2.3C1153.353,416.642,1150.544,416.66,1147.735,416.66Zm0-1.016h8.38c.111,0,.223,0,.334-.012a1.053,1.053,0,0,0,.981-1.061c0-.764-.005-1.528.005-2.292,0-.178-.042-.226-.223-.225-1.4.008-2.8.006-4.2,0a4.6,4.6,0,0,1-.784-.049,3.556,3.556,0,0,1-2.165-5.71,3.5,3.5,0,0,1,2.868-1.348c1.425,0,2.849,0,4.274,0,.194,0,.234-.058.231-.239-.01-.724,0-1.448,0-2.173a1.093,1.093,0,0,0-1.17-1.179q-8.512,0-17.023,0a1.1,1.1,0,0,0-1.17,1.162q-.008,5.981,0,11.962a1.122,1.122,0,0,0,.433.937,1.276,1.276,0,0,0,.833.222Q1143.532,415.642,1147.734,415.644Zm7.653-4.6v.014c.931,0,1.861-.007,2.792,0,.23,0,.3-.065.3-.3q-.014-2.243,0-4.486c0-.244-.065-.3-.307-.3-1.582,0-3.165.03-4.746-.033a4.712,4.712,0,0,0-1.115.067,2.547,2.547,0,0,0,.311,5.029C1153.542,411.058,1154.465,411.041,1155.387,411.041Zm-3.153-10.686,0-.044a1.094,1.094,0,0,0-.1-.054l-5.973-2.486c-.886-.368-1.771-.74-2.659-1.1a.532.532,0,0,0-.775.276c-.439,1.079-.865,2.164-1.3,3.244-.063.156,0,.174.131.171.271,0,.542-.009.812,0a.216.216,0,0,0,.242-.169c.177-.476.361-.948.544-1.422a.542.542,0,0,1,.8-.376l5.639,1.879a1.017,1.017,0,0,0,.3.077C1150.677,400.358,1151.456,400.356,1152.235,400.356Zm-8.6-.007h2.91c-.813-.306-1.632-.578-2.451-.851-.08-.027-.139-.016-.171.07Z" fill="#cec9c9"/>
    <path id="Path_174" data-name="Path 174" d="M1349.673,562.746c-.922,0-1.845.016-2.767,0a2.547,2.547,0,0,1-.311-5.029,4.709,4.709,0,0,1,1.115-.067c1.582.063,3.164.03,4.746.033.242,0,.308.061.307.3q-.017,2.243,0,4.485c0,.23-.066.3-.3.3-.93-.012-1.861-.005-2.792-.005Zm-2.545-4.061a1.527,1.527,0,1,0,1.531,1.534A1.533,1.533,0,0,0,1347.128,558.685Z" transform="translate(-194.285 -151.705)" fill="#90c8ac"/>
    <path id="Path_175" data-name="Path 175" d="M1216.1,415.151c-.779,0-1.558,0-2.338,0a1.017,1.017,0,0,1-.3-.077l-5.639-1.879a.542.542,0,0,0-.8.376c-.183.473-.367.946-.544,1.422a.215.215,0,0,1-.242.169c-.27-.011-.541-.007-.812,0-.131,0-.194-.015-.131-.171.437-1.08.863-2.164,1.3-3.244a.532.532,0,0,1,.775-.276c.888.363,1.773.735,2.659,1.1l5.973,2.486a1.076,1.076,0,0,1,.1.054Z" transform="translate(-63.861 -14.796)" fill="#90c8ac"/>
    <path id="Path_176" data-name="Path 176" d="M1187.558,550.045c.645,0,1.289,0,1.934,0,.363,0,.6.2.6.5s-.231.507-.593.507q-1.958,0-3.915,0a.511.511,0,1,1,0-1.012C1186.238,550.044,1186.9,550.045,1187.558,550.045Z" transform="translate(-44.884 -144.594)" fill="#707070"/>
    <path id="Path_177" data-name="Path 177" d="M1186.514,519.044c-.3,0-.6,0-.905,0-.374-.005-.615-.215-.608-.523s.24-.5.6-.5q.929,0,1.858,0c.366,0,.588.2.589.51s-.216.509-.584.516C1187.15,519.049,1186.832,519.044,1186.514,519.044Z" transform="translate(-44.89 -114.609)" fill="#707070"/>
    <path id="Path_178" data-name="Path 178" d="M1362.137,574.015a1.527,1.527,0,1,1-1.525,1.516A1.535,1.535,0,0,1,1362.137,574.015Zm0,1.051a.462.462,0,0,0-.523.473.523.523,0,1,0,1.046,0A.464.464,0,0,0,1362.141,575.066Z" transform="translate(-209.294 -167.034)" fill="#707070"/>
    <path id="Path_179" data-name="Path 179" d="M1376.88,590.491a.464.464,0,0,1,.523.473.523.523,0,1,1-1.046,0A.462.462,0,0,1,1376.88,590.491Z" transform="translate(-224.034 -182.459)" fill="#ccb9d7"/>
  </g>
</svg>
